<svg xmlns="http://www.w3.org/2000/svg" xmlns:xlink="http://www.w3.org/1999/xlink" width="1366" zoomAndPan="magnify" viewBox="0 0 1024.5 576" height="768" preserveAspectRatio="xMidYMid meet" version="1.0"><defs><g/><clipPath id="a67c56ff2e"><path d="M 0 0.140625 L 1024 0.140625 L 1024 575.859375 L 0 575.859375 Z M 0 0.140625 " clip-rule="nonzero"/></clipPath><clipPath id="4e34297a50"><path d="M 321.71875 97.71875 L 702.28125 97.71875 L 702.28125 478.28125 L 321.71875 478.28125 Z M 321.71875 97.71875 " clip-rule="nonzero"/></clipPath><clipPath id="b82261e40f"><path d="M 512 97.71875 C 406.910156 97.71875 321.71875 182.910156 321.71875 288 C 321.71875 393.089844 406.910156 478.28125 512 478.28125 C 617.089844 478.28125 702.28125 393.089844 702.28125 288 C 702.28125 182.910156 617.089844 97.71875 512 97.71875 Z M 512 97.71875 " clip-rule="nonzero"/></clipPath><clipPath id="8c201e3315"><path d="M 321.71875 97.71875 L 702.535156 97.71875 L 702.535156 478.535156 L 321.71875 478.535156 Z M 321.71875 97.71875 " clip-rule="nonzero"/></clipPath></defs><g clip-path="url(#a67c56ff2e)"><path fill="#ffffff" d="M 0 0.140625 L 1024 0.140625 L 1024 575.859375 L 0 575.859375 Z M 0 0.140625 " fill-opacity="1" fill-rule="nonzero"/><path fill="#ffffff" d="M 0 0.140625 L 1024 0.140625 L 1024 575.859375 L 0 575.859375 Z M 0 0.140625 " fill-opacity="1" fill-rule="nonzero"/></g><g clip-path="url(#4e34297a50)"><g clip-path="url(#b82261e40f)"><path fill="#7ed957" d="M 321.71875 97.71875 L 702.28125 97.71875 L 702.28125 478.28125 L 321.71875 478.28125 Z M 321.71875 97.71875 " fill-opacity="1" fill-rule="nonzero"/></g></g><path fill="#000000" d="M 564.191406 134.664062 C 563.894531 134.917969 563.726562 135.382812 563.6875 136.0625 C 563.65625 136.519531 563.609375 136.6875 563.433594 136.914062 C 563.179688 137.242188 563.015625 137.726562 563.011719 138.140625 C 563.011719 138.34375 562.953125 138.488281 562.808594 138.621094 C 562.695312 138.726562 562.605469 138.898438 562.605469 139.003906 C 562.605469 139.109375 562.546875 139.285156 562.472656 139.394531 C 562.394531 139.515625 562.359375 139.6875 562.382812 139.816406 C 562.417969 139.992188 562.355469 140.113281 562.066406 140.433594 C 561.714844 140.824219 561.460938 141.417969 561.460938 141.859375 C 561.460938 142.023438 561.171875 142.511719 560.976562 142.683594 C 560.863281 142.777344 560.667969 143.148438 560.617188 143.355469 C 560.585938 143.480469 560.414062 143.789062 560.238281 144.046875 C 560.058594 144.300781 559.914062 144.554688 559.914062 144.609375 C 559.914062 144.664062 559.765625 144.824219 559.585938 144.96875 C 559.359375 145.148438 559.234375 145.332031 559.171875 145.5625 C 559.125 145.742188 558.996094 145.976562 558.886719 146.078125 C 558.777344 146.179688 558.691406 146.335938 558.691406 146.425781 C 558.691406 146.511719 558.441406 146.828125 558.128906 147.140625 C 557.65625 147.613281 557.554688 147.765625 557.464844 148.128906 C 557.382812 148.46875 557.277344 148.644531 556.964844 148.949219 C 556.746094 149.164062 556.570312 149.398438 556.570312 149.472656 C 556.570312 149.691406 556.265625 150.046875 555.980469 150.160156 C 555.59375 150.3125 555.4375 150.46875 555.21875 150.933594 C 555.105469 151.171875 554.832031 151.523438 554.582031 151.75 C 554.34375 151.96875 554.109375 152.261719 554.0625 152.402344 C 553.917969 152.824219 553.558594 153.328125 553.339844 153.410156 C 553.117188 153.496094 552.675781 153.339844 552.484375 153.117188 C 552.433594 153.050781 552.351562 153 552.304688 153 C 552.160156 153 551.597656 152.351562 551.542969 152.121094 C 551.515625 152 551.4375 151.839844 551.371094 151.765625 C 551.304688 151.6875 551.21875 151.457031 551.179688 151.253906 C 551.128906 150.988281 551.035156 150.820312 550.855469 150.667969 C 550.601562 150.457031 550.207031 149.75 550.207031 149.507812 C 550.207031 149.433594 550.15625 149.304688 550.089844 149.21875 C 550.023438 149.132812 549.96875 148.996094 549.964844 148.921875 C 549.964844 148.84375 549.855469 148.660156 549.722656 148.507812 C 549.589844 148.355469 549.40625 148.0625 549.316406 147.855469 C 549.226562 147.648438 548.96875 147.234375 548.742188 146.9375 C 548.519531 146.640625 548.332031 146.351562 548.332031 146.296875 C 548.332031 146.242188 548.28125 146.15625 548.21875 146.105469 C 548.160156 146.054688 548.085938 145.863281 548.054688 145.683594 C 548.007812 145.386719 547.980469 145.355469 547.789062 145.378906 C 547.621094 145.398438 547.550781 145.476562 547.464844 145.71875 C 547.40625 145.894531 547.207031 146.195312 547.027344 146.386719 C 546.824219 146.609375 546.703125 146.820312 546.703125 146.949219 C 546.703125 147.074219 546.578125 147.292969 546.390625 147.5 C 545.988281 147.945312 545.84375 148.1875 545.777344 148.519531 C 545.75 148.667969 545.613281 148.921875 545.480469 149.085938 C 545.328125 149.269531 545.234375 149.476562 545.234375 149.628906 C 545.234375 149.960938 544.699219 150.816406 544.296875 151.132812 C 543.925781 151.425781 543.6875 151.753906 543.683594 151.972656 C 543.683594 152.054688 543.574219 152.261719 543.441406 152.429688 C 543.308594 152.597656 543.109375 152.914062 543 153.132812 C 542.886719 153.351562 542.664062 153.65625 542.5 153.8125 C 542.335938 153.96875 542.113281 154.269531 542.007812 154.480469 C 541.898438 154.691406 541.675781 154.964844 541.511719 155.089844 C 540.933594 155.527344 540.851562 155.640625 540.792969 156.074219 C 540.746094 156.398438 540.679688 156.539062 540.488281 156.695312 C 540.355469 156.808594 540.21875 156.902344 540.179688 156.902344 C 540.058594 156.902344 539.585938 157.425781 539.472656 157.691406 C 539.410156 157.835938 539.324219 157.957031 539.28125 157.957031 C 539.136719 157.957031 538.066406 159.019531 537.78125 159.453125 C 537.445312 159.953125 537.363281 160.027344 537.042969 160.105469 C 536.910156 160.136719 536.726562 160.246094 536.632812 160.34375 C 535.746094 161.324219 535.203125 161.832031 534.726562 162.132812 C 534.550781 162.242188 534.300781 162.484375 534.171875 162.664062 C 534.042969 162.84375 533.871094 163.015625 533.785156 163.042969 C 533.703125 163.070312 533.417969 163.289062 533.15625 163.53125 C 532.890625 163.769531 532.609375 163.96875 532.527344 163.96875 C 532.335938 163.96875 532.007812 164.320312 531.789062 164.753906 C 531.65625 165.019531 531.539062 165.121094 531.242188 165.234375 C 531.015625 165.320312 530.769531 165.496094 530.621094 165.679688 C 530.488281 165.84375 530.234375 166.046875 530.054688 166.125 C 529.839844 166.222656 529.660156 166.386719 529.527344 166.617188 C 529.277344 167.039062 529.015625 167.21875 528.644531 167.21875 C 528.433594 167.21875 528.269531 167.296875 527.984375 167.542969 C 527.777344 167.722656 527.582031 167.867188 527.550781 167.867188 C 527.519531 167.867188 527.320312 168.023438 527.113281 168.214844 C 526.855469 168.453125 526.648438 168.570312 526.46875 168.582031 C 526.300781 168.597656 526.105469 168.703125 525.917969 168.886719 C 525.757812 169.039062 525.558594 169.167969 525.480469 169.167969 C 525.402344 169.167969 525.335938 169.195312 525.335938 169.230469 C 525.335938 169.261719 525.207031 169.425781 525.054688 169.59375 C 524.851562 169.8125 524.707031 169.898438 524.535156 169.898438 C 524.234375 169.898438 523.902344 170.15625 523.828125 170.445312 C 523.757812 170.730469 523.636719 170.875 523.46875 170.875 C 523.398438 170.875 523.003906 171.164062 522.59375 171.511719 C 522.109375 171.925781 521.75 172.171875 521.574219 172.207031 C 521.421875 172.234375 521.171875 172.382812 521.019531 172.539062 C 520.867188 172.691406 520.609375 172.878906 520.449219 172.957031 C 520.113281 173.113281 519.984375 173.265625 519.921875 173.566406 C 519.847656 173.945312 519.414062 174.285156 518.863281 174.40625 C 518.738281 174.433594 518.554688 174.535156 518.457031 174.636719 C 517.859375 175.253906 517.316406 175.898438 516.984375 176.386719 C 516.769531 176.703125 516.390625 177.113281 516.117188 177.328125 C 515.847656 177.539062 515.628906 177.742188 515.628906 177.78125 C 515.628906 177.820312 515.414062 178.085938 515.152344 178.367188 C 514.890625 178.644531 514.578125 179.058594 514.464844 179.28125 C 514.347656 179.503906 514.15625 179.796875 514.035156 179.933594 C 513.488281 180.546875 513.109375 181.109375 513.019531 181.441406 C 512.96875 181.636719 512.804688 181.929688 512.65625 182.085938 C 512.46875 182.28125 512.375 182.472656 512.34375 182.710938 C 512.316406 182.941406 512.179688 183.230469 511.929688 183.589844 C 511.648438 183.988281 511.550781 184.199219 511.550781 184.425781 C 511.550781 184.589844 511.5 184.816406 511.4375 184.929688 C 511 185.714844 510.738281 186.246094 510.738281 186.34375 C 510.738281 186.410156 510.6875 186.507812 510.628906 186.570312 C 510.390625 186.808594 510.316406 187.054688 510.371094 187.445312 C 510.414062 187.773438 510.390625 187.898438 510.214844 188.230469 C 510.070312 188.496094 510.003906 188.75 510.003906 189.019531 C 510.003906 189.273438 509.933594 189.550781 509.808594 189.796875 C 509.636719 190.144531 509.625 190.210938 509.722656 190.4375 C 509.820312 190.667969 509.8125 190.714844 509.609375 190.996094 C 509.386719 191.308594 509.371094 191.441406 509.363281 192.765625 C 509.359375 193.207031 509.199219 193.835938 509.058594 193.953125 C 508.910156 194.074219 508.910156 194.359375 509.0625 194.558594 C 509.214844 194.761719 509.21875 194.925781 509.066406 195.214844 C 508.894531 195.542969 508.914062 195.800781 509.132812 196.222656 C 509.261719 196.46875 509.308594 196.652344 509.269531 196.789062 C 509.199219 197.054688 509.265625 198.105469 509.359375 198.207031 C 509.457031 198.3125 509.453125 198.71875 509.351562 198.78125 C 509.234375 198.851562 509.25 199.164062 509.390625 199.5 C 509.457031 199.660156 509.515625 199.9375 509.515625 200.121094 C 509.515625 200.300781 509.570312 200.535156 509.636719 200.636719 C 509.703125 200.738281 509.773438 201.035156 509.792969 201.289062 C 509.816406 201.5625 509.902344 201.875 510.003906 202.050781 C 510.121094 202.246094 510.1875 202.511719 510.203125 202.835938 C 510.21875 203.226562 510.277344 203.417969 510.488281 203.753906 C 510.632812 203.992188 510.8125 204.214844 510.886719 204.257812 C 510.992188 204.316406 511.023438 204.453125 511.023438 204.832031 C 511.023438 205.328125 511.027344 205.335938 511.503906 205.855469 C 511.765625 206.140625 512.035156 206.375 512.097656 206.375 C 512.273438 206.375 512.511719 206.636719 512.542969 206.859375 C 512.5625 206.984375 512.710938 207.164062 512.9375 207.328125 C 513.347656 207.628906 513.824219 208.078125 514.464844 208.765625 C 514.71875 209.03125 514.960938 209.21875 515.0625 209.21875 C 515.152344 209.21875 515.328125 209.320312 515.449219 209.441406 C 515.574219 209.566406 515.773438 209.71875 515.898438 209.78125 C 516.019531 209.84375 516.183594 209.96875 516.261719 210.054688 C 516.699219 210.535156 516.949219 210.75 517.207031 210.875 C 517.367188 210.949219 517.5625 211.09375 517.644531 211.195312 C 517.796875 211.390625 518.984375 212.226562 519.105469 212.226562 C 519.179688 212.226562 519.53125 212.5625 519.929688 213.007812 C 520.054688 213.148438 520.289062 213.304688 520.453125 213.355469 C 520.617188 213.40625 520.8125 213.523438 520.894531 213.609375 C 520.972656 213.695312 521.078125 213.769531 521.128906 213.769531 C 521.214844 213.769531 521.871094 214.355469 521.921875 214.484375 C 521.988281 214.636719 522.550781 214.988281 522.667969 214.941406 C 522.824219 214.882812 523.132812 215.136719 523.132812 215.328125 C 523.132812 215.53125 523.546875 215.882812 523.789062 215.882812 C 523.917969 215.882812 524.105469 215.988281 524.277344 216.164062 C 524.433594 216.316406 524.625 216.445312 524.707031 216.449219 C 524.785156 216.449219 525.03125 216.542969 525.253906 216.652344 C 525.476562 216.765625 525.734375 216.855469 525.828125 216.855469 C 525.925781 216.855469 526.101562 216.972656 526.21875 217.113281 C 526.675781 217.65625 526.796875 217.75 527.039062 217.75 C 527.355469 217.75 527.726562 217.953125 528.183594 218.378906 C 528.386719 218.570312 528.625 218.75 528.714844 218.777344 C 528.800781 218.804688 528.984375 218.929688 529.121094 219.058594 C 529.257812 219.1875 529.402344 219.292969 529.441406 219.292969 C 529.527344 219.292969 530.089844 219.550781 530.148438 219.617188 C 530.328125 219.820312 530.761719 220.105469 530.890625 220.105469 C 531.054688 220.105469 531.078125 220.121094 531.476562 220.472656 C 531.777344 220.738281 532.167969 220.9375 532.269531 220.875 C 532.316406 220.847656 532.464844 220.882812 532.605469 220.953125 C 532.746094 221.023438 532.898438 221.082031 532.941406 221.082031 C 533.046875 221.082031 534.09375 221.777344 534.222656 221.933594 C 534.28125 222 534.378906 222.054688 534.441406 222.054688 C 534.503906 222.054688 534.578125 222.113281 534.605469 222.179688 C 534.632812 222.257812 534.738281 222.300781 534.867188 222.289062 C 535.410156 222.25 535.609375 222.304688 535.910156 222.582031 C 536.089844 222.746094 536.34375 222.886719 536.507812 222.914062 C 536.871094 222.976562 537.273438 223.175781 537.550781 223.441406 C 538.113281 223.972656 538.320312 224.070312 538.761719 224.027344 C 539.023438 224.003906 539.199219 224.019531 539.234375 224.078125 C 539.265625 224.128906 539.363281 224.167969 539.453125 224.167969 C 539.601562 224.167969 539.976562 224.390625 540.242188 224.636719 C 540.390625 224.773438 540.476562 224.761719 540.601562 224.59375 C 540.875 224.226562 541.339844 224.078125 541.640625 224.265625 C 541.757812 224.335938 541.898438 224.335938 542.230469 224.265625 C 543.058594 224.089844 543.527344 224.066406 543.675781 224.203125 C 543.789062 224.304688 543.925781 224.3125 544.433594 224.257812 C 544.777344 224.21875 545.175781 224.128906 545.320312 224.054688 C 545.621094 223.90625 545.933594 223.882812 546.007812 224.003906 C 546.035156 224.050781 546.195312 224.085938 546.359375 224.085938 C 546.804688 224.082031 548.015625 223.855469 548.140625 223.75 C 548.207031 223.695312 548.378906 223.679688 548.5625 223.710938 C 548.824219 223.75 548.941406 223.714844 549.316406 223.472656 C 549.828125 223.144531 550.308594 222.996094 550.609375 223.070312 C 551.195312 223.214844 551.261719 223.207031 551.691406 222.96875 C 551.929688 222.835938 552.222656 222.703125 552.34375 222.675781 C 552.464844 222.648438 552.609375 222.578125 552.667969 222.519531 C 552.925781 222.273438 553.394531 222.050781 553.765625 222.007812 C 554.242188 221.949219 554.757812 221.730469 554.96875 221.5 C 555.140625 221.308594 556.222656 220.835938 556.488281 220.835938 C 556.71875 220.835938 556.957031 220.703125 557.265625 220.398438 C 557.597656 220.070312 558.085938 219.78125 558.308594 219.78125 C 558.867188 219.777344 559.171875 219.605469 560.304688 218.625 C 560.601562 218.367188 560.902344 218.15625 560.972656 218.15625 C 561.046875 218.15625 561.339844 217.933594 561.625 217.664062 C 562.125 217.1875 562.410156 216.988281 563.226562 216.523438 C 563.605469 216.304688 563.90625 215.945312 563.910156 215.707031 C 563.910156 215.496094 564.535156 214.90625 564.757812 214.90625 C 564.894531 214.90625 565.007812 214.820312 565.125 214.636719 C 565.214844 214.488281 565.375 214.328125 565.476562 214.28125 C 565.699219 214.175781 566.628906 213.378906 566.675781 213.25 C 566.691406 213.199219 566.820312 213.050781 566.960938 212.914062 C 567.097656 212.78125 567.304688 212.539062 567.414062 212.375 C 567.96875 211.574219 568.410156 211.054688 569.21875 210.234375 C 570.019531 209.425781 570.113281 209.304688 570.179688 208.945312 C 570.21875 208.726562 570.328125 208.453125 570.425781 208.335938 C 570.519531 208.21875 570.675781 207.976562 570.769531 207.796875 C 570.867188 207.617188 571.066406 207.335938 571.21875 207.171875 C 571.367188 207.003906 571.511719 206.765625 571.539062 206.640625 C 571.5625 206.519531 571.625 206.34375 571.675781 206.253906 C 572.4375 204.910156 572.703125 204.34375 572.757812 203.921875 C 572.792969 203.6875 572.84375 203.472656 572.878906 203.453125 C 572.910156 203.429688 573.113281 203.195312 573.328125 202.933594 C 573.6875 202.488281 573.722656 202.40625 573.796875 201.792969 C 573.859375 201.296875 573.9375 201.050781 574.113281 200.785156 C 574.242188 200.59375 574.347656 200.339844 574.347656 200.222656 C 574.347656 200.105469 574.445312 199.871094 574.5625 199.699219 C 574.6875 199.515625 574.792969 199.238281 574.816406 199.003906 C 574.839844 198.792969 574.902344 198.5625 574.960938 198.496094 C 575.015625 198.429688 575.078125 198.167969 575.097656 197.917969 C 575.121094 197.625 575.199219 197.375 575.3125 197.214844 C 575.410156 197.078125 575.578125 196.695312 575.683594 196.367188 C 575.84375 195.871094 575.871094 195.660156 575.835938 195.0625 C 575.804688 194.503906 575.820312 194.316406 575.917969 194.207031 C 576.0625 194.039062 576.304688 193.339844 576.304688 193.082031 C 576.304688 192.980469 576.269531 192.878906 576.222656 192.847656 C 576.113281 192.78125 576.121094 192.429688 576.238281 192.214844 C 576.34375 192.023438 576.371094 191.703125 576.410156 190.164062 C 576.425781 189.628906 576.46875 189.136719 576.503906 189.078125 C 576.542969 189.019531 576.601562 188.746094 576.632812 188.472656 C 576.667969 188.199219 576.742188 187.742188 576.800781 187.460938 C 576.898438 187 576.894531 186.921875 576.757812 186.675781 C 576.621094 186.417969 576.617188 186.367188 576.746094 185.6875 C 576.816406 185.292969 576.871094 184.8125 576.863281 184.625 C 576.855469 184.394531 576.898438 184.226562 576.996094 184.121094 C 577.113281 183.988281 577.132812 183.863281 577.097656 183.410156 C 577.078125 183.105469 577.097656 182.585938 577.140625 182.253906 C 577.21875 181.691406 577.214844 181.625 577.039062 181.300781 C 576.871094 180.976562 576.863281 180.917969 576.957031 180.582031 C 577.027344 180.335938 577.042969 180.007812 577.007812 179.605469 C 576.972656 179.242188 576.984375 178.9375 577.035156 178.847656 C 577.078125 178.761719 577.136719 178.1875 577.164062 177.566406 C 577.191406 176.945312 577.246094 176.292969 577.292969 176.113281 C 577.34375 175.910156 577.347656 175.566406 577.300781 175.1875 C 577.242188 174.703125 577.253906 174.5 577.363281 174.152344 C 577.4375 173.917969 577.515625 173.703125 577.542969 173.675781 C 577.566406 173.652344 577.554688 173.460938 577.507812 173.253906 C 577.445312 172.957031 577.453125 172.824219 577.558594 172.605469 C 577.703125 172.304688 577.730469 171.792969 577.617188 171.613281 C 577.519531 171.457031 577.140625 171.613281 576.828125 171.9375 C 576.664062 172.109375 576.523438 172.171875 576.316406 172.171875 C 576.054688 172.171875 575.441406 172.414062 575.175781 172.617188 C 575.117188 172.664062 574.875 172.886719 574.644531 173.117188 C 574.292969 173.460938 574.15625 173.539062 573.824219 173.589844 C 573.480469 173.640625 572.984375 173.820312 572.554688 174.046875 C 572.339844 174.15625 571.464844 174.589844 571.167969 174.726562 C 571.011719 174.800781 570.828125 174.886719 570.757812 174.925781 C 570.339844 175.148438 570.03125 175.292969 569.765625 175.386719 L 569.464844 175.492188 L 569.402344 175.03125 C 569.335938 174.558594 569.335938 174.433594 569.40625 172.417969 C 569.429688 171.71875 569.414062 171.105469 569.363281 170.90625 C 569.289062 170.625 569.304688 170.515625 569.4375 170.214844 C 569.570312 169.921875 569.589844 169.742188 569.558594 169.226562 C 569.535156 168.878906 569.484375 168.574219 569.445312 168.550781 C 569.335938 168.484375 569.359375 168.003906 569.484375 167.695312 C 569.566406 167.484375 569.574219 167.289062 569.515625 166.851562 C 569.421875 166.164062 569.414062 165.285156 569.488281 162.992188 C 569.5625 160.691406 569.5625 160.742188 569.328125 159.554688 C 569.289062 159.347656 569.304688 159.179688 569.378906 159.046875 C 569.464844 158.886719 569.464844 158.789062 569.386719 158.578125 C 569.335938 158.429688 569.292969 157.976562 569.292969 157.570312 C 569.292969 157.164062 569.253906 156.804688 569.210938 156.777344 C 569.101562 156.710938 569.105469 156.414062 569.226562 155.964844 C 569.3125 155.652344 569.304688 155.566406 569.191406 155.371094 C 569.089844 155.199219 569.066406 155.03125 569.101562 154.683594 C 569.132812 154.390625 569.117188 154.183594 569.058594 154.109375 C 569.003906 154.046875 568.972656 153.78125 568.984375 153.480469 C 569.003906 153.039062 568.976562 152.917969 568.808594 152.683594 C 568.613281 152.414062 568.613281 152.394531 568.710938 151.714844 C 568.796875 151.121094 568.792969 150.898438 568.671875 150.164062 C 568.597656 149.691406 568.488281 149.195312 568.429688 149.0625 C 568.339844 148.855469 568.339844 148.800781 568.449219 148.679688 C 568.546875 148.574219 568.5625 148.449219 568.519531 148.132812 C 568.488281 147.90625 568.433594 147.71875 568.398438 147.71875 C 568.195312 147.71875 567.9375 146.40625 568.054688 145.980469 C 568.117188 145.757812 568.09375 145.640625 567.929688 145.3125 C 567.816406 145.097656 567.695312 144.707031 567.660156 144.449219 C 567.613281 144.132812 567.523438 143.898438 567.382812 143.730469 C 567.191406 143.507812 567.171875 143.414062 567.171875 142.8125 C 567.171875 142.242188 567.140625 142.078125 566.957031 141.742188 C 566.785156 141.421875 566.734375 141.203125 566.710938 140.65625 C 566.695312 140.277344 566.644531 139.933594 566.601562 139.886719 C 566.554688 139.84375 566.519531 139.714844 566.515625 139.601562 C 566.515625 139.488281 566.460938 139.300781 566.398438 139.191406 C 566.332031 139.078125 566.277344 138.886719 566.277344 138.761719 C 566.277344 138.640625 566.199219 138.402344 566.109375 138.234375 C 566.019531 138.070312 565.949219 137.851562 565.949219 137.753906 C 565.949219 137.65625 565.917969 137.554688 565.878906 137.53125 C 565.839844 137.507812 565.785156 137.347656 565.757812 137.175781 C 565.730469 137.003906 565.644531 136.742188 565.570312 136.59375 C 565.496094 136.445312 565.335938 135.992188 565.214844 135.59375 C 565.003906 134.886719 564.746094 134.476562 564.515625 134.476562 C 564.457031 134.476562 564.308594 134.5625 564.191406 134.664062 M 569.085938 153.515625 C 569.050781 153.59375 569.0625 153.699219 569.109375 153.746094 C 569.222656 153.859375 569.285156 153.726562 569.207031 153.527344 C 569.148438 153.375 569.140625 153.375 569.085938 153.515625 M 509.457031 206.929688 C 509.402344 206.964844 509.363281 207.140625 509.371094 207.332031 C 509.382812 207.582031 509.339844 207.71875 509.203125 207.859375 C 509.105469 207.964844 509.023438 208.089844 509.023438 208.136719 C 509.023438 208.1875 508.972656 208.265625 508.910156 208.320312 C 508.847656 208.371094 508.769531 208.511719 508.742188 208.632812 C 508.710938 208.75 508.578125 208.996094 508.449219 209.171875 C 508.234375 209.457031 508.210938 209.5625 508.210938 210.078125 C 508.210938 210.496094 508.175781 210.691406 508.085938 210.761719 C 508.019531 210.820312 507.964844 210.929688 507.964844 211.007812 C 507.964844 211.085938 507.910156 211.195312 507.84375 211.25 C 507.773438 211.304688 507.71875 211.421875 507.71875 211.511719 C 507.71875 211.601562 507.648438 211.765625 507.558594 211.878906 C 507.421875 212.046875 507.394531 212.207031 507.394531 212.789062 C 507.394531 213.484375 507.390625 213.5 507.09375 213.84375 C 506.933594 214.035156 506.789062 214.285156 506.777344 214.40625 C 506.753906 214.664062 506.648438 214.910156 506.375 215.351562 C 506.21875 215.605469 506.183594 215.746094 506.21875 215.984375 C 506.246094 216.152344 506.230469 216.289062 506.1875 216.289062 C 506.03125 216.289062 505.109375 217.253906 505.109375 217.417969 C 505.109375 217.578125 504.652344 218.53125 504.472656 218.75 C 504.425781 218.800781 504.328125 219.011719 504.25 219.210938 C 504.171875 219.414062 503.984375 219.695312 503.835938 219.835938 C 503.683594 219.980469 503.5625 220.148438 503.5625 220.207031 C 503.5625 220.269531 503.507812 220.390625 503.441406 220.476562 C 503.371094 220.566406 503.320312 220.816406 503.320312 221.0625 C 503.316406 221.351562 503.277344 221.507812 503.203125 221.535156 C 503.140625 221.558594 503.070312 221.679688 503.046875 221.800781 C 502.992188 222.0625 502.503906 222.566406 502.238281 222.628906 C 502.089844 222.664062 502.042969 222.742188 502.003906 223.035156 C 501.945312 223.484375 501.804688 223.789062 501.464844 224.21875 C 501.316406 224.398438 501.195312 224.59375 501.195312 224.648438 C 501.195312 224.703125 501.140625 224.804688 501.074219 224.871094 C 501.007812 224.9375 500.949219 225.128906 500.949219 225.296875 C 500.949219 225.640625 500.636719 226.023438 500.21875 226.199219 C 500.082031 226.253906 499.972656 226.355469 499.972656 226.421875 C 499.972656 226.488281 499.894531 226.671875 499.800781 226.824219 C 499.675781 227.027344 499.640625 227.179688 499.671875 227.382812 C 499.707031 227.601562 499.683594 227.679688 499.558594 227.746094 C 499.472656 227.792969 499.402344 227.882812 499.402344 227.945312 C 499.402344 228.007812 499.179688 228.285156 498.910156 228.558594 C 498.597656 228.871094 498.398438 229.148438 498.363281 229.3125 C 498.335938 229.453125 498.226562 229.660156 498.117188 229.773438 C 497.96875 229.929688 497.933594 230.039062 497.964844 230.238281 C 497.996094 230.460938 497.949219 230.554688 497.644531 230.886719 C 497.445312 231.101562 497.28125 231.332031 497.277344 231.398438 C 497.277344 231.464844 497.054688 231.738281 496.789062 232.003906 C 496.332031 232.453125 496.300781 232.507812 496.300781 232.867188 C 496.300781 233.121094 496.257812 233.285156 496.167969 233.355469 C 495.984375 233.511719 495.707031 233.976562 495.574219 234.363281 C 495.515625 234.542969 495.359375 234.820312 495.230469 234.984375 C 495.101562 235.148438 494.867188 235.542969 494.707031 235.863281 C 494.546875 236.191406 494.261719 236.597656 494.054688 236.792969 C 493.855469 236.980469 493.691406 237.179688 493.691406 237.226562 C 493.691406 237.277344 493.648438 237.332031 493.59375 237.347656 C 493.539062 237.367188 493.488281 237.496094 493.480469 237.632812 C 493.46875 237.894531 493.167969 238.589844 493.03125 238.675781 C 492.992188 238.699219 492.976562 238.757812 493.003906 238.800781 C 493.085938 238.929688 492.589844 239.707031 492.101562 240.203125 C 491.925781 240.386719 491.789062 240.59375 491.65625 240.890625 C 491.609375 240.992188 491.515625 241.132812 491.449219 241.199219 C 491.382812 241.265625 491.328125 241.367188 491.328125 241.425781 C 491.328125 241.480469 491.21875 241.625 491.082031 241.742188 C 490.917969 241.890625 490.839844 242.039062 490.839844 242.195312 C 490.839844 242.328125 490.785156 242.449219 490.714844 242.476562 C 490.636719 242.507812 490.59375 242.636719 490.59375 242.851562 C 490.59375 243.070312 490.550781 243.199219 490.472656 243.230469 C 490.40625 243.253906 490.347656 243.339844 490.347656 243.417969 C 490.347656 243.492188 490.222656 243.734375 490.0625 243.957031 C 489.90625 244.175781 489.777344 244.386719 489.777344 244.425781 C 489.777344 244.464844 489.613281 244.652344 489.410156 244.839844 C 489.210938 245.027344 489.042969 245.21875 489.042969 245.265625 C 489.042969 245.316406 488.988281 245.375 488.921875 245.402344 C 488.851562 245.429688 488.800781 245.550781 488.800781 245.695312 C 488.800781 245.84375 488.75 245.964844 488.675781 245.992188 C 488.609375 246.019531 488.554688 246.140625 488.554688 246.269531 C 488.554688 246.421875 488.496094 246.535156 488.390625 246.589844 C 488.300781 246.636719 488.230469 246.730469 488.230469 246.796875 C 488.230469 246.863281 488.191406 246.914062 488.144531 246.914062 C 488.097656 246.914062 488.027344 246.996094 487.984375 247.097656 C 487.863281 247.371094 487.710938 247.597656 487.597656 247.671875 C 487.539062 247.707031 487.496094 247.894531 487.496094 248.085938 C 487.496094 248.425781 487.273438 248.789062 486.820312 249.183594 C 486.742188 249.25 486.679688 249.382812 486.679688 249.472656 C 486.679688 249.636719 486.511719 249.929688 486.296875 250.148438 C 486.238281 250.210938 486.191406 250.347656 486.191406 250.457031 C 486.191406 250.5625 486.117188 250.789062 486.027344 250.957031 C 485.9375 251.121094 485.863281 251.300781 485.863281 251.355469 C 485.863281 251.410156 485.753906 251.5625 485.621094 251.695312 C 485.488281 251.828125 485.292969 252.09375 485.183594 252.289062 C 484.6875 253.1875 484.59375 253.332031 484.5 253.332031 C 484.449219 253.332031 484.378906 253.460938 484.351562 253.613281 C 484.316406 253.785156 484.160156 254.039062 483.9375 254.273438 C 483.640625 254.585938 483.582031 254.703125 483.582031 254.964844 C 483.582031 255.140625 483.542969 255.28125 483.496094 255.28125 C 483.449219 255.28125 483.378906 255.375 483.335938 255.484375 C 483.292969 255.597656 483.226562 255.6875 483.183594 255.6875 C 483.140625 255.6875 483.085938 255.785156 483.054688 255.898438 C 483.027344 256.015625 482.910156 256.195312 482.796875 256.296875 C 482.683594 256.402344 482.574219 256.617188 482.546875 256.78125 C 482.511719 256.988281 482.378906 257.199219 482.097656 257.484375 C 481.878906 257.707031 481.722656 257.925781 481.75 257.972656 C 481.78125 258.019531 481.671875 258.171875 481.515625 258.316406 C 481.257812 258.542969 481.21875 258.632812 481.167969 259.101562 C 481.101562 259.703125 480.878906 260.078125 480.277344 260.601562 C 479.980469 260.855469 479.910156 260.96875 479.910156 261.1875 C 479.910156 261.335938 479.875 261.457031 479.828125 261.457031 C 479.785156 261.457031 479.746094 261.585938 479.746094 261.742188 C 479.746094 261.9375 479.695312 262.054688 479.585938 262.125 C 479.496094 262.183594 479.421875 262.273438 479.421875 262.328125 C 479.421875 262.386719 479.386719 262.433594 479.339844 262.433594 C 479.296875 262.433594 479.1875 262.496094 479.097656 262.570312 C 478.972656 262.679688 478.933594 262.8125 478.933594 263.128906 C 478.933594 263.460938 478.882812 263.613281 478.6875 263.882812 C 478.550781 264.066406 478.40625 264.21875 478.363281 264.21875 C 478.316406 264.21875 478.171875 264.4375 478.039062 264.699219 C 477.902344 264.964844 477.726562 265.203125 477.640625 265.230469 C 477.558594 265.257812 477.449219 265.359375 477.402344 265.460938 C 477.3125 265.648438 477.222656 265.839844 477.136719 266.03125 C 477.035156 266.246094 476.886719 266.46875 476.800781 266.519531 C 476.71875 266.570312 476.648438 266.699219 476.648438 266.800781 C 476.648438 266.90625 476.523438 267.113281 476.363281 267.273438 C 476.1875 267.445312 476.078125 267.636719 476.078125 267.761719 C 476.078125 268.039062 475.898438 268.363281 475.550781 268.707031 C 475.335938 268.925781 475.261719 269.066406 475.261719 269.269531 C 475.261719 269.476562 475.160156 269.667969 474.839844 270.070312 C 474.605469 270.359375 474.332031 270.675781 474.226562 270.777344 C 474.101562 270.894531 474.039062 271.046875 474.039062 271.238281 C 474.039062 271.390625 473.984375 271.574219 473.921875 271.636719 C 473.855469 271.703125 473.777344 271.847656 473.75 271.960938 C 473.722656 272.074219 473.644531 272.1875 473.582031 272.214844 C 473.519531 272.238281 473.46875 272.328125 473.46875 272.414062 C 473.46875 272.496094 473.414062 272.613281 473.34375 272.667969 C 473.277344 272.722656 473.222656 272.832031 473.222656 272.914062 C 473.222656 272.992188 473.167969 273.101562 473.101562 273.15625 C 473.035156 273.210938 472.980469 273.304688 472.980469 273.359375 C 472.980469 273.414062 472.921875 273.507812 472.855469 273.5625 C 472.789062 273.617188 472.734375 273.734375 472.734375 273.820312 C 472.734375 273.902344 472.679688 273.996094 472.613281 274.019531 C 472.542969 274.046875 472.488281 274.117188 472.488281 274.175781 C 472.488281 274.234375 472.441406 274.316406 472.386719 274.351562 C 472.332031 274.386719 472.195312 274.546875 472.089844 274.707031 C 471.980469 274.863281 471.789062 275.042969 471.660156 275.097656 C 471.507812 275.167969 471.429688 275.261719 471.429688 275.382812 C 471.429688 275.480469 471.375 275.632812 471.308594 275.71875 C 471.242188 275.804688 471.1875 275.996094 471.1875 276.140625 C 471.183594 276.304688 471.121094 276.460938 471.019531 276.546875 C 470.90625 276.644531 470.859375 276.785156 470.859375 277.023438 C 470.859375 277.320312 470.8125 277.402344 470.511719 277.671875 C 470.074219 278.0625 469.878906 278.375 469.878906 278.683594 C 469.878906 278.820312 469.828125 278.949219 469.765625 278.972656 C 469.699219 279 469.628906 279.195312 469.597656 279.457031 C 469.566406 279.699219 469.515625 279.898438 469.480469 279.898438 C 469.355469 279.898438 468.574219 280.734375 468.574219 280.871094 C 468.574219 280.949219 468.519531 281.0625 468.453125 281.117188 C 468.386719 281.171875 468.332031 281.265625 468.332031 281.320312 C 468.332031 281.378906 468.148438 281.582031 467.925781 281.777344 C 467.546875 282.109375 467.519531 282.160156 467.515625 282.519531 C 467.515625 282.839844 467.472656 282.941406 467.265625 283.140625 C 467.113281 283.285156 467 283.492188 466.96875 283.671875 C 466.9375 283.878906 466.839844 284.03125 466.660156 284.167969 C 466.515625 284.277344 466.375 284.367188 466.347656 284.367188 C 466.195312 284.367188 465.964844 284.675781 465.964844 284.875 C 465.964844 285.003906 465.910156 285.125 465.84375 285.148438 C 465.777344 285.175781 465.71875 285.285156 465.71875 285.394531 C 465.71875 285.503906 465.664062 285.613281 465.597656 285.636719 C 465.519531 285.667969 465.488281 285.742188 465.519531 285.835938 C 465.550781 285.941406 465.476562 286.078125 465.277344 286.277344 C 465.117188 286.4375 464.988281 286.632812 464.988281 286.714844 C 464.988281 286.792969 464.914062 286.925781 464.824219 287.007812 C 464.707031 287.113281 464.660156 287.257812 464.660156 287.511719 C 464.660156 287.75 464.621094 287.878906 464.539062 287.914062 C 464.472656 287.9375 464.414062 287.988281 464.414062 288.027344 C 464.414062 288.066406 464.253906 288.265625 464.058594 288.472656 C 463.824219 288.71875 463.660156 288.988281 463.59375 289.230469 C 463.535156 289.4375 463.40625 289.71875 463.300781 289.859375 C 463.195312 289.996094 463.109375 290.175781 463.109375 290.261719 C 463.109375 290.457031 462.789062 290.917969 462.574219 291.03125 C 462.433594 291.105469 462.40625 291.195312 462.414062 291.539062 C 462.417969 291.925781 462.394531 291.976562 462.03125 292.355469 C 461.816406 292.578125 461.644531 292.792969 461.644531 292.828125 C 461.644531 292.867188 461.578125 292.964844 461.5 293.046875 C 461.277344 293.28125 461.070312 293.703125 461.070312 293.921875 C 461.070312 294.03125 461.015625 294.140625 460.949219 294.167969 C 460.882812 294.195312 460.828125 294.316406 460.828125 294.445312 C 460.828125 294.789062 460.683594 295.101562 460.503906 295.148438 C 460.289062 295.203125 459.796875 295.953125 459.726562 296.328125 C 459.695312 296.492188 459.5625 296.726562 459.433594 296.851562 C 459.304688 296.976562 459.199219 297.160156 459.199219 297.253906 C 459.199219 297.351562 459.140625 297.449219 459.074219 297.476562 C 459.007812 297.503906 458.953125 297.578125 458.953125 297.648438 C 458.953125 297.714844 458.902344 297.773438 458.84375 297.773438 C 458.675781 297.773438 458.460938 298.046875 458.460938 298.257812 C 458.460938 298.460938 458.164062 298.992188 458.050781 298.992188 C 457.957031 298.992188 457.648438 299.664062 457.648438 299.859375 C 457.648438 300.007812 456.871094 300.859375 456.738281 300.859375 C 456.699219 300.859375 456.667969 300.949219 456.667969 301.058594 C 456.667969 301.347656 456.550781 301.597656 456.265625 301.898438 C 456.128906 302.046875 456.015625 302.25 456.015625 302.351562 C 456.015625 302.558594 455.703125 302.890625 455.507812 302.890625 C 455.339844 302.890625 455.28125 303.058594 455.28125 303.539062 C 455.28125 303.757812 455.253906 303.945312 455.21875 303.960938 C 455.179688 303.976562 455.070312 304.164062 454.96875 304.378906 C 454.777344 304.789062 454.6875 304.921875 454.445312 305.148438 C 454.367188 305.222656 454.304688 305.324219 454.304688 305.378906 C 454.304688 305.429688 454.25 305.492188 454.179688 305.519531 C 454.113281 305.546875 454.058594 305.636719 454.058594 305.726562 C 454.058594 305.8125 454.007812 305.933594 453.945312 305.996094 C 453.886719 306.058594 453.8125 306.183594 453.78125 306.277344 C 453.75 306.371094 453.671875 306.46875 453.605469 306.496094 C 453.542969 306.519531 453.488281 306.601562 453.488281 306.675781 C 453.488281 306.75 453.398438 306.894531 453.289062 306.996094 C 453.101562 307.167969 452.820312 307.707031 452.855469 307.832031 C 452.878906 307.929688 452.609375 308.363281 452.269531 308.769531 C 452.054688 309.023438 451.9375 309.242188 451.9375 309.390625 C 451.9375 309.550781 451.824219 309.734375 451.53125 310.03125 C 451.179688 310.386719 451.121094 310.492188 451.121094 310.765625 C 451.121094 310.941406 451.085938 311.109375 451.042969 311.136719 C 450.996094 311.164062 450.960938 311.257812 450.960938 311.34375 C 450.960938 311.433594 450.886719 311.566406 450.796875 311.640625 C 450.707031 311.71875 450.632812 311.8125 450.632812 311.851562 C 450.632812 311.886719 450.578125 311.972656 450.511719 312.042969 C 450.445312 312.109375 450.390625 312.230469 450.390625 312.316406 C 450.390625 312.398438 450.339844 312.496094 450.28125 312.535156 C 450.222656 312.570312 450.144531 312.652344 450.113281 312.71875 C 449.996094 312.972656 449.832031 313.230469 449.761719 313.28125 C 449.535156 313.4375 449.328125 313.828125 449.328125 314.09375 C 449.328125 314.308594 449.261719 314.460938 449.082031 314.65625 C 448.949219 314.804688 448.839844 314.953125 448.839844 314.992188 C 448.839844 315.027344 448.785156 315.078125 448.71875 315.105469 C 448.648438 315.132812 448.59375 315.195312 448.59375 315.246094 C 448.59375 315.296875 448.488281 315.46875 448.359375 315.632812 C 448.230469 315.796875 448.097656 316.019531 448.066406 316.132812 C 448.03125 316.242188 447.898438 316.492188 447.769531 316.683594 C 447.640625 316.878906 447.535156 317.144531 447.535156 317.273438 C 447.535156 317.46875 447.480469 317.542969 447.253906 317.648438 C 446.996094 317.769531 446.972656 317.8125 446.9375 318.234375 C 446.914062 318.488281 446.851562 318.929688 446.800781 319.21875 C 446.746094 319.511719 446.710938 319.800781 446.71875 319.871094 C 446.726562 319.9375 446.742188 320.246094 446.757812 320.558594 C 446.789062 321.398438 446.792969 321.414062 446.890625 321.414062 C 446.9375 321.414062 447.09375 321.546875 447.234375 321.714844 C 447.378906 321.878906 447.675781 322.210938 447.902344 322.449219 C 448.125 322.6875 448.296875 322.941406 448.285156 323.007812 C 448.269531 323.078125 448.398438 323.269531 448.570312 323.4375 C 448.738281 323.605469 448.976562 323.859375 449.097656 324 C 449.296875 324.234375 449.347656 324.253906 449.640625 324.207031 C 449.957031 324.160156 449.980469 324.171875 450.527344 324.714844 C 450.835938 325.019531 451.113281 325.335938 451.144531 325.414062 C 451.175781 325.492188 451.242188 325.554688 451.292969 325.554688 C 451.347656 325.554688 451.433594 325.613281 451.484375 325.6875 C 451.550781 325.773438 451.742188 325.824219 452.09375 325.84375 C 452.617188 325.871094 453 326.082031 453 326.339844 C 453 326.484375 453.625 326.828125 454.007812 326.894531 C 454.183594 326.921875 454.472656 327.042969 454.652344 327.15625 C 454.910156 327.316406 455.078125 327.359375 455.457031 327.355469 C 455.8125 327.347656 456.027344 327.398438 456.300781 327.542969 C 456.730469 327.769531 456.992188 327.734375 457.359375 327.394531 C 457.484375 327.277344 457.632812 327.179688 457.691406 327.179688 C 457.746094 327.179688 457.832031 327.132812 457.882812 327.070312 C 457.933594 327.007812 458.140625 326.941406 458.347656 326.917969 C 458.550781 326.894531 458.777344 326.820312 458.855469 326.75 C 459.425781 326.242188 459.605469 326.039062 459.605469 325.902344 C 459.605469 325.75 460.042969 325.3125 460.195312 325.3125 C 460.230469 325.3125 460.332031 325.15625 460.417969 324.96875 C 460.617188 324.527344 460.78125 324.324219 460.921875 324.339844 C 461.167969 324.371094 461.390625 324.230469 461.4375 324.011719 C 461.46875 323.886719 461.542969 323.761719 461.605469 323.738281 C 461.671875 323.714844 461.722656 323.601562 461.722656 323.488281 C 461.722656 323.375 461.816406 323.183594 461.925781 323.058594 C 462.265625 322.683594 462.492188 322.367188 462.625 322.09375 C 462.691406 321.949219 462.902344 321.664062 463.09375 321.464844 C 463.28125 321.261719 463.4375 321.058594 463.4375 321.011719 C 463.4375 320.882812 464 320.355469 464.136719 320.355469 C 464.199219 320.355469 464.253906 320.28125 464.253906 320.191406 C 464.253906 320.09375 464.515625 319.761719 464.90625 319.378906 C 465.421875 318.863281 465.558594 318.679688 465.558594 318.492188 C 465.558594 318.363281 465.605469 318.207031 465.664062 318.148438 C 465.71875 318.089844 465.855469 317.898438 465.964844 317.71875 C 466.222656 317.300781 466.421875 317.109375 466.597656 317.105469 C 467.019531 317.101562 467.105469 317.019531 467.109375 316.628906 C 467.109375 316.125 467.253906 315.867188 467.597656 315.757812 C 467.78125 315.695312 467.890625 315.605469 467.90625 315.5 C 467.921875 315.40625 467.984375 315.289062 468.050781 315.234375 C 468.113281 315.179688 468.167969 315.09375 468.167969 315.039062 C 468.167969 314.929688 468.597656 314.425781 468.695312 314.425781 C 468.816406 314.425781 469.144531 314.015625 469.199219 313.792969 C 469.261719 313.542969 469.625 313.125 469.777344 313.125 C 469.9375 313.125 470.207031 312.820312 470.207031 312.636719 C 470.207031 312.546875 470.261719 312.449219 470.324219 312.425781 C 470.390625 312.398438 470.46875 312.253906 470.5 312.101562 C 470.535156 311.90625 470.644531 311.753906 470.847656 311.601562 C 471.214844 311.335938 471.503906 311.007812 471.507812 310.863281 C 471.507812 310.804688 471.617188 310.621094 471.746094 310.457031 C 471.875 310.292969 472.09375 309.972656 472.238281 309.738281 C 472.382812 309.507812 472.5625 309.296875 472.636719 309.273438 C 472.714844 309.25 472.8125 309.148438 472.855469 309.046875 C 472.902344 308.949219 473.03125 308.84375 473.140625 308.820312 C 473.269531 308.789062 473.355469 308.707031 473.371094 308.597656 C 473.394531 308.4375 473.535156 308.238281 473.957031 307.765625 C 474.023438 307.691406 474.121094 307.558594 474.167969 307.472656 C 474.21875 307.386719 474.335938 307.277344 474.433594 307.230469 C 474.738281 307.074219 474.9375 306.78125 474.9375 306.472656 C 474.941406 306.171875 474.921875 306.195312 476.0625 304.960938 C 476.226562 304.78125 476.464844 304.484375 476.589844 304.304688 C 476.714844 304.121094 476.925781 303.871094 477.058594 303.742188 C 477.191406 303.613281 477.300781 303.476562 477.300781 303.433594 C 477.300781 303.367188 477.53125 303.066406 477.910156 302.625 C 477.980469 302.546875 478.035156 302.449219 478.035156 302.402344 C 478.035156 302.359375 478.105469 302.320312 478.191406 302.320312 C 478.277344 302.320312 478.40625 302.265625 478.472656 302.199219 C 478.539062 302.132812 478.613281 302.078125 478.640625 302.078125 C 478.769531 302.078125 479.03125 301.707031 479.070312 301.464844 C 479.09375 301.3125 479.167969 301.144531 479.226562 301.09375 C 479.289062 301.042969 479.339844 300.96875 479.339844 300.925781 C 479.339844 300.707031 480.265625 299.722656 480.472656 299.722656 C 480.523438 299.722656 480.5625 299.648438 480.5625 299.5625 C 480.5625 299.472656 480.746094 299.21875 480.972656 299 C 481.195312 298.777344 481.378906 298.539062 481.378906 298.464844 C 481.378906 298.347656 481.554688 298.160156 482.394531 297.382812 C 482.59375 297.199219 482.683594 297.046875 482.683594 296.886719 C 482.683594 296.757812 482.738281 296.609375 482.804688 296.554688 C 482.871094 296.496094 482.929688 296.382812 482.929688 296.300781 C 482.929688 296.214844 482.957031 296.144531 482.988281 296.144531 C 483.09375 296.140625 483.742188 295.535156 483.742188 295.441406 C 483.742188 295.394531 483.898438 295.21875 484.085938 295.054688 C 484.457031 294.730469 484.664062 294.433594 484.746094 294.117188 C 484.820312 293.824219 485.1875 293.464844 485.40625 293.464844 C 485.667969 293.464844 485.917969 293.136719 486.074219 292.574219 C 486.160156 292.257812 486.429688 291.921875 486.59375 291.921875 C 486.675781 291.921875 486.765625 291.867188 486.789062 291.800781 C 486.816406 291.734375 486.894531 291.679688 486.960938 291.679688 C 487.042969 291.679688 487.085938 291.601562 487.085938 291.46875 C 487.085938 291.222656 487.542969 290.703125 487.757812 290.703125 C 487.863281 290.703125 487.902344 290.640625 487.902344 290.464844 C 487.902344 290.332031 487.949219 290.195312 488.003906 290.160156 C 488.121094 290.085938 488.257812 289.875 488.421875 289.527344 C 488.484375 289.390625 488.667969 289.167969 488.832031 289.023438 C 489.015625 288.863281 489.148438 288.664062 489.179688 288.496094 C 489.222656 288.257812 489.609375 287.78125 489.761719 287.777344 C 489.792969 287.777344 490.011719 287.601562 490.25 287.382812 C 490.574219 287.089844 490.695312 286.914062 490.730469 286.695312 C 490.773438 286.425781 491.296875 285.75 491.46875 285.746094 C 491.625 285.746094 492.214844 285.09375 492.394531 284.726562 C 492.613281 284.28125 492.992188 283.738281 493.386719 283.3125 C 493.535156 283.15625 493.757812 282.890625 493.890625 282.722656 C 494.023438 282.554688 494.179688 282.417969 494.238281 282.417969 C 494.296875 282.417969 494.347656 282.371094 494.347656 282.316406 C 494.351562 282.261719 494.460938 282.085938 494.59375 281.933594 C 494.738281 281.765625 494.835938 281.558594 494.835938 281.421875 C 494.835938 281.097656 494.957031 280.902344 495.199219 280.839844 C 495.3125 280.8125 495.40625 280.753906 495.40625 280.710938 C 495.40625 280.664062 495.453125 280.628906 495.507812 280.628906 C 495.644531 280.625 495.855469 280.320312 495.929688 280.019531 C 495.996094 279.738281 496.277344 279.410156 496.449219 279.410156 C 496.644531 279.410156 497.199219 278.699219 497.199219 278.449219 C 497.199219 278.339844 498.316406 277.21875 498.421875 277.21875 C 498.46875 277.21875 498.503906 277.148438 498.503906 277.0625 C 498.503906 276.933594 498.679688 276.75 499.21875 276.316406 C 499.273438 276.273438 499.320312 276.0625 499.320312 275.851562 C 499.320312 275.519531 499.359375 275.425781 499.589844 275.203125 C 499.738281 275.058594 499.902344 274.941406 499.957031 274.941406 C 500.011719 274.941406 500.054688 274.910156 500.054688 274.875 C 500.054688 274.757812 500.902344 273.886719 501.011719 273.886719 C 501.066406 273.886719 501.113281 273.832031 501.113281 273.761719 C 501.113281 273.640625 501.175781 273.542969 501.460938 273.230469 C 501.539062 273.144531 501.601562 273.035156 501.601562 272.992188 C 501.601562 272.945312 501.714844 272.789062 501.851562 272.644531 C 502.183594 272.296875 502.910156 271.316406 502.910156 271.214844 C 502.910156 271.171875 502.972656 271.117188 503.054688 271.089844 C 503.132812 271.066406 503.253906 270.964844 503.316406 270.871094 C 503.382812 270.773438 503.558594 270.578125 503.703125 270.4375 C 503.847656 270.292969 503.96875 270.09375 503.96875 269.996094 C 503.96875 269.898438 504.019531 269.800781 504.082031 269.777344 C 504.148438 269.75 504.21875 269.644531 504.246094 269.535156 C 504.277344 269.417969 504.375 269.320312 504.496094 269.289062 C 504.605469 269.261719 504.722656 269.164062 504.75 269.070312 C 504.816406 268.859375 504.875 268.789062 505.519531 268.125 C 506.355469 267.261719 506.496094 267.078125 506.496094 266.863281 C 506.496094 266.609375 506.75 266.371094 507.203125 266.199219 C 507.503906 266.085938 507.5625 266.027344 507.609375 265.777344 C 507.667969 265.464844 507.703125 265.410156 508.105469 265 C 508.253906 264.851562 508.371094 264.652344 508.371094 264.554688 C 508.371094 264.402344 508.632812 264.070312 509.476562 263.148438 C 509.585938 263.027344 509.675781 262.898438 509.675781 262.859375 C 509.675781 262.765625 510.195312 262.269531 510.292969 262.269531 C 510.433594 262.265625 510.738281 261.882812 510.695312 261.765625 C 510.652344 261.652344 510.96875 261.214844 511.09375 261.214844 C 511.226562 261.214844 511.464844 260.84375 511.46875 260.632812 C 511.472656 260.429688 511.574219 260.3125 512.332031 259.671875 C 512.464844 259.558594 512.609375 259.46875 512.652344 259.46875 C 512.699219 259.46875 512.757812 259.320312 512.785156 259.140625 C 512.8125 258.964844 512.839844 258.839844 512.847656 258.871094 C 512.851562 258.902344 512.988281 258.800781 513.144531 258.648438 C 513.300781 258.496094 513.46875 258.371094 513.511719 258.371094 C 513.554688 258.371094 513.589844 258.320312 513.589844 258.257812 C 513.589844 258.195312 513.648438 258.121094 513.714844 258.097656 C 513.789062 258.066406 513.835938 257.945312 513.835938 257.773438 C 513.835938 257.601562 513.882812 257.476562 513.957031 257.445312 C 514.027344 257.421875 514.082031 257.324219 514.082031 257.234375 C 514.082031 257.144531 514.117188 257.070312 514.160156 257.070312 C 514.203125 257.070312 514.261719 256.984375 514.289062 256.875 C 514.316406 256.769531 514.464844 256.578125 514.617188 256.449219 C 514.769531 256.324219 514.894531 256.191406 514.894531 256.15625 C 514.894531 256.046875 515.660156 255.28125 515.769531 255.28125 C 515.828125 255.28125 515.875 255.25 515.875 255.210938 C 515.875 255.171875 516.039062 254.964844 516.242188 254.75 C 516.445312 254.539062 516.609375 254.292969 516.609375 254.207031 C 516.609375 253.984375 516.757812 253.738281 516.898438 253.738281 C 516.964844 253.738281 517.015625 253.703125 517.015625 253.660156 C 517.015625 253.617188 517.109375 253.558594 517.21875 253.527344 C 517.332031 253.5 517.425781 253.429688 517.425781 253.375 C 517.425781 253.316406 517.484375 253.246094 517.554688 253.21875 C 517.667969 253.175781 517.671875 253.148438 517.582031 253.039062 C 517.488281 252.929688 517.527344 252.863281 517.855469 252.554688 C 518.117188 252.3125 518.238281 252.136719 518.238281 251.996094 C 518.238281 251.882812 518.273438 251.789062 518.316406 251.789062 C 518.359375 251.789062 518.417969 251.714844 518.445312 251.617188 C 518.523438 251.375 518.761719 251.160156 519.136719 251 C 519.316406 250.921875 519.464844 250.8125 519.464844 250.753906 C 519.464844 250.699219 519.535156 250.578125 519.625 250.488281 C 519.714844 250.398438 519.789062 250.296875 519.789062 250.257812 C 519.789062 250.214844 519.84375 250.140625 519.910156 250.082031 C 519.980469 250.027344 520.035156 249.914062 520.035156 249.832031 C 520.035156 249.5625 520.289062 249.144531 520.570312 248.953125 C 520.722656 248.847656 520.851562 248.703125 520.851562 248.632812 C 520.851562 248.558594 520.9375 248.410156 521.046875 248.296875 C 521.5625 247.769531 521.828125 247.476562 521.828125 247.4375 C 521.828125 247.386719 522.152344 246.933594 522.316406 246.75 C 522.789062 246.234375 523.007812 245.945312 523.105469 245.71875 C 523.183594 245.527344 523.269531 245.453125 523.40625 245.453125 C 523.761719 245.453125 524.4375 244.660156 524.4375 244.246094 C 524.4375 244.160156 524.492188 244.046875 524.558594 243.992188 C 524.628906 243.933594 524.683594 243.851562 524.683594 243.808594 C 524.683594 243.710938 525.234375 243.179688 525.332031 243.179688 C 525.367188 243.179688 525.417969 243.078125 525.441406 242.953125 C 525.488281 242.726562 526.238281 241.878906 526.394531 241.878906 C 526.4375 241.878906 526.476562 241.820312 526.476562 241.753906 C 526.476562 241.683594 526.53125 241.609375 526.597656 241.582031 C 526.660156 241.558594 526.738281 241.460938 526.769531 241.371094 C 526.828125 241.1875 526.925781 241.050781 527.148438 240.839844 C 527.226562 240.765625 527.292969 240.667969 527.292969 240.617188 C 527.292969 240.570312 527.402344 240.414062 527.535156 240.265625 C 527.671875 240.121094 527.78125 239.910156 527.78125 239.800781 C 527.78125 239.6875 527.835938 239.578125 527.902344 239.550781 C 527.972656 239.527344 528.027344 239.457031 528.027344 239.394531 C 528.027344 239.332031 528.15625 239.261719 528.332031 239.234375 C 528.792969 239.152344 528.976562 239 529.226562 238.484375 C 529.351562 238.230469 529.554688 237.914062 529.675781 237.789062 C 529.925781 237.535156 530.023438 237.253906 529.957031 236.996094 C 529.933594 236.894531 529.960938 236.8125 530.03125 236.785156 C 530.09375 236.761719 530.148438 236.691406 530.148438 236.632812 C 530.148438 236.570312 530.238281 236.496094 530.351562 236.46875 C 530.824219 236.351562 531.988281 235.136719 532.570312 234.160156 C 532.890625 233.617188 533.167969 233.265625 533.503906 232.980469 C 533.765625 232.757812 534.050781 232.511719 534.140625 232.433594 C 534.238281 232.351562 534.304688 232.191406 534.304688 232.046875 C 534.304688 231.902344 534.355469 231.78125 534.429688 231.753906 C 534.496094 231.726562 534.550781 231.65625 534.550781 231.597656 C 534.550781 231.539062 534.835938 231.234375 535.183594 230.917969 C 535.53125 230.601562 535.886719 230.238281 535.976562 230.105469 C 536.0625 229.972656 536.226562 229.816406 536.339844 229.757812 C 536.449219 229.699219 536.699219 229.496094 536.890625 229.304688 C 537.082031 229.117188 537.257812 228.960938 537.285156 228.960938 C 537.335938 228.960938 537.828125 228.625 537.894531 228.546875 C 537.917969 228.519531 538.027344 228.46875 538.136719 228.433594 C 538.363281 228.363281 538.539062 228.171875 538.542969 227.992188 C 538.550781 227.765625 538.957031 227.335938 539.164062 227.335938 C 539.441406 227.335938 539.773438 227.109375 539.714844 226.960938 C 539.640625 226.773438 539.253906 226.613281 538.738281 226.554688 C 538.175781 226.492188 537.910156 226.371094 537.546875 226.015625 C 537.1875 225.660156 536.875 225.46875 536.660156 225.46875 C 536.234375 225.46875 535.457031 225.171875 534.921875 224.800781 C 534.609375 224.585938 534.277344 224.410156 534.183594 224.410156 C 534.089844 224.410156 533.863281 224.304688 533.6875 224.171875 C 533.472656 224.015625 533.210938 223.914062 532.933594 223.878906 C 532.640625 223.839844 532.398438 223.742188 532.171875 223.566406 C 531.988281 223.429688 531.757812 223.261719 531.660156 223.191406 C 531.5625 223.125 531.394531 222.988281 531.289062 222.886719 C 531.164062 222.769531 530.992188 222.707031 530.804688 222.707031 C 530.644531 222.707031 530.394531 222.640625 530.25 222.5625 C 529.878906 222.363281 529.0625 221.808594 528.964844 221.691406 C 528.917969 221.636719 528.679688 221.492188 528.433594 221.371094 C 527.867188 221.089844 527.769531 221.03125 527.171875 220.628906 C 526.902344 220.449219 526.585938 220.261719 526.46875 220.210938 C 526.351562 220.160156 526.058594 219.960938 525.816406 219.765625 C 525.574219 219.570312 525.257812 219.363281 525.117188 219.304688 C 524.976562 219.246094 524.746094 219.074219 524.609375 218.925781 C 524.464844 218.765625 524.222656 218.613281 524.03125 218.5625 C 523.679688 218.46875 523.136719 218.132812 522.609375 217.695312 C 522.433594 217.546875 522.230469 217.425781 522.160156 217.425781 C 522.085938 217.425781 521.847656 217.269531 521.621094 217.078125 C 521.398438 216.886719 521.058594 216.660156 520.867188 216.574219 C 520.675781 216.492188 520.382812 216.273438 520.21875 216.09375 C 520.046875 215.902344 519.859375 215.769531 519.777344 215.785156 C 519.699219 215.796875 519.546875 215.6875 519.421875 215.519531 C 519.289062 215.351562 518.984375 215.128906 518.675781 214.972656 C 518.386719 214.832031 518.074219 214.621094 517.984375 214.507812 C 517.707031 214.152344 516.578125 213.203125 516.425781 213.203125 C 516.351562 213.199219 516.164062 213.019531 516.015625 212.800781 C 515.867188 212.578125 515.542969 212.265625 515.300781 212.101562 C 515.054688 211.9375 514.671875 211.613281 514.449219 211.382812 C 514.222656 211.152344 513.929688 210.917969 513.800781 210.859375 C 513.566406 210.753906 513.300781 210.515625 512.179688 209.410156 C 511.902344 209.132812 511.527344 208.835938 511.347656 208.746094 C 510.949219 208.550781 510.761719 208.351562 510.722656 208.082031 C 510.703125 207.933594 510.59375 207.832031 510.304688 207.695312 C 510.089844 207.59375 509.894531 207.449219 509.871094 207.371094 C 509.792969 207.128906 509.652344 206.863281 509.601562 206.863281 C 509.574219 206.867188 509.511719 206.894531 509.457031 206.929688 M 513.355469 212.011719 C 513.300781 212.074219 513.070312 212.207031 512.835938 212.304688 C 512.296875 212.535156 512.125 212.6875 512.125 212.933594 C 512.125 213.179688 512.011719 213.390625 511.652344 213.828125 C 511.5 214.015625 511.339844 214.328125 511.296875 214.519531 C 511.253906 214.710938 511.160156 214.992188 511.085938 215.148438 C 511.011719 215.304688 510.960938 215.566406 510.972656 215.726562 C 510.984375 215.90625 510.921875 216.15625 510.808594 216.367188 L 510.628906 216.714844 L 510.808594 217.058594 C 510.910156 217.25 511.089844 217.453125 511.210938 217.515625 C 511.484375 217.65625 511.710938 217.910156 511.714844 218.082031 C 511.714844 218.15625 511.796875 218.304688 511.898438 218.417969 C 512 218.53125 512.183594 218.757812 512.3125 218.917969 C 512.4375 219.078125 512.582031 219.210938 512.636719 219.210938 C 512.691406 219.210938 512.855469 219.390625 513 219.613281 C 513.257812 220.003906 513.632812 220.269531 513.925781 220.269531 C 514.007812 220.269531 514.109375 220.332031 514.152344 220.410156 C 514.214844 220.519531 514.355469 220.554688 514.789062 220.570312 C 515.09375 220.578125 515.460938 220.609375 515.605469 220.636719 C 515.859375 220.691406 515.875 220.675781 516.074219 220.257812 C 516.21875 219.945312 516.371094 219.765625 516.605469 219.621094 C 516.785156 219.511719 516.957031 219.347656 516.988281 219.257812 C 517.015625 219.164062 517.140625 218.945312 517.265625 218.765625 C 517.390625 218.585938 517.535156 218.292969 517.589844 218.117188 C 517.640625 217.9375 517.753906 217.65625 517.839844 217.492188 C 517.96875 217.242188 517.980469 217.121094 517.917969 216.679688 C 517.804688 215.914062 517.746094 215.722656 517.554688 215.523438 C 515.421875 213.296875 514.925781 212.792969 514.863281 212.792969 C 514.824219 212.792969 514.578125 212.59375 514.320312 212.347656 C 513.835938 211.886719 513.542969 211.789062 513.355469 212.011719 M 507.183594 224.019531 C 506.597656 224.472656 506.164062 224.941406 506.085938 225.21875 C 506.042969 225.378906 505.894531 225.652344 505.761719 225.828125 C 505.582031 226.0625 505.519531 226.234375 505.519531 226.484375 C 505.519531 226.75 505.457031 226.886719 505.226562 227.160156 C 505.066406 227.347656 504.871094 227.5 504.792969 227.5 C 504.652344 227.5 504.292969 227.902344 504.292969 228.0625 C 504.292969 228.105469 504.234375 228.28125 504.164062 228.449219 C 503.835938 229.214844 503.78125 229.332031 503.714844 229.449219 C 503.671875 229.515625 503.585938 229.683594 503.523438 229.820312 C 503.460938 229.957031 503.351562 230.117188 503.28125 230.175781 C 503.210938 230.234375 503.152344 230.328125 503.152344 230.382812 C 503.152344 230.4375 503.097656 230.53125 503.03125 230.585938 C 502.964844 230.640625 502.910156 230.757812 502.910156 230.839844 C 502.910156 230.925781 502.730469 231.167969 502.507812 231.378906 C 502.046875 231.824219 501.847656 232.175781 501.84375 232.550781 C 501.839844 232.757812 501.757812 232.90625 501.476562 233.183594 C 501.214844 233.449219 501.113281 233.617188 501.113281 233.789062 C 501.113281 233.96875 500.988281 234.15625 500.585938 234.574219 C 500.09375 235.078125 500.054688 235.144531 500.054688 235.480469 C 500.054688 235.8125 500.007812 235.890625 499.554688 236.382812 C 499.136719 236.839844 499.066406 236.957031 499.109375 237.132812 C 499.191406 237.449219 499.09375 237.644531 498.785156 237.773438 C 498.59375 237.851562 498.496094 237.957031 498.460938 238.117188 C 498.429688 238.242188 498.363281 238.4375 498.3125 238.546875 C 498.152344 238.890625 497.515625 239.847656 497.449219 239.847656 C 497.414062 239.847656 497.285156 239.941406 497.164062 240.050781 C 497 240.203125 496.945312 240.328125 496.957031 240.519531 C 496.984375 241.007812 496.957031 241.066406 496.511719 241.515625 C 495.980469 242.054688 495.53125 242.839844 495.464844 243.339844 C 495.421875 243.660156 495.351562 243.765625 494.921875 244.152344 C 494.652344 244.398438 494.390625 244.691406 494.347656 244.804688 C 494.300781 244.914062 494.191406 245.117188 494.101562 245.25 C 493.855469 245.632812 493.710938 245.953125 493.609375 246.339844 C 493.554688 246.546875 493.402344 246.8125 493.253906 246.960938 C 492.996094 247.21875 492.878906 247.417969 492.554688 248.160156 C 492.460938 248.375 492.246094 248.703125 492.078125 248.890625 C 491.730469 249.277344 491.492188 249.75 491.492188 250.046875 C 491.492188 250.183594 491.367188 250.371094 491.125 250.609375 C 490.921875 250.804688 490.757812 250.980469 490.757812 251.003906 C 490.757812 251.027344 490.648438 251.167969 490.511719 251.316406 C 490.378906 251.460938 490.269531 251.625 490.269531 251.679688 C 490.269531 251.734375 490.183594 251.878906 490.078125 252.007812 C 489.78125 252.367188 489.453125 253.007812 489.453125 253.226562 C 489.453125 253.476562 489.214844 253.800781 488.574219 254.414062 C 488.097656 254.871094 488.066406 254.925781 488.0625 255.277344 C 488.0625 255.675781 487.859375 256.195312 487.597656 256.464844 C 487.097656 256.980469 486.386719 258.238281 486.195312 258.9375 C 486.097656 259.304688 485.78125 259.75 485.625 259.75 C 485.523438 259.75 485.128906 260.167969 485.128906 260.28125 C 485.128906 260.324219 485.054688 260.5 484.964844 260.667969 C 484.878906 260.832031 484.804688 261.019531 484.804688 261.082031 C 484.804688 261.144531 484.753906 261.234375 484.691406 261.289062 C 484.628906 261.339844 484.550781 261.507812 484.523438 261.664062 C 484.488281 261.847656 484.339844 262.078125 484.105469 262.308594 C 483.90625 262.507812 483.742188 262.71875 483.742188 262.777344 C 483.742188 262.875 483.308594 263.578125 483.097656 263.828125 C 482.765625 264.21875 482.683594 264.339844 482.683594 264.445312 C 482.683594 264.507812 482.574219 264.699219 482.4375 264.871094 C 482.304688 265.039062 482.191406 265.207031 482.191406 265.246094 C 482.191406 265.285156 482.082031 265.421875 481.945312 265.554688 C 481.789062 265.707031 481.703125 265.871094 481.703125 266.019531 C 481.703125 266.152344 481.632812 266.3125 481.542969 266.390625 C 481.453125 266.46875 481.378906 266.5625 481.378906 266.605469 C 481.378906 266.648438 481.253906 266.832031 481.105469 267.015625 C 480.796875 267.390625 480.53125 267.878906 480.445312 268.238281 C 480.382812 268.507812 480.125 269.125 479.96875 269.382812 C 479.914062 269.476562 479.796875 269.675781 479.707031 269.828125 C 479.617188 269.980469 479.40625 270.242188 479.238281 270.414062 C 479.070312 270.585938 478.933594 270.773438 478.933594 270.832031 C 478.933594 270.890625 478.804688 271.101562 478.648438 271.296875 C 478.492188 271.492188 478.34375 271.761719 478.3125 271.898438 C 478.285156 272.03125 478.160156 272.25 478.035156 272.382812 C 477.722656 272.71875 477.367188 273.308594 477.421875 273.398438 C 477.445312 273.4375 477.402344 273.578125 477.324219 273.710938 C 477.058594 274.152344 476.691406 274.703125 476.457031 275.007812 C 476.230469 275.304688 475.75 276.242188 475.75 276.394531 C 475.75 276.4375 475.59375 276.59375 475.40625 276.738281 C 474.910156 277.117188 474.789062 277.285156 474.683594 277.761719 C 474.625 278.011719 474.492188 278.285156 474.355469 278.4375 C 474.066406 278.746094 473.996094 278.886719 473.925781 279.246094 C 473.894531 279.402344 473.761719 279.667969 473.628906 279.832031 C 473.496094 279.996094 473.386719 280.226562 473.386719 280.339844 C 473.386719 280.464844 473.269531 280.675781 473.101562 280.863281 C 472.945312 281.035156 472.816406 281.207031 472.816406 281.246094 C 472.816406 281.285156 472.648438 281.484375 472.441406 281.691406 C 472.164062 281.972656 472.058594 282.152344 472.027344 282.386719 C 471.976562 282.765625 471.625 283.308594 471.347656 283.449219 C 471.058594 283.589844 470.863281 283.886719 470.859375 284.175781 C 470.859375 284.351562 470.753906 284.5625 470.535156 284.839844 C 470.359375 285.0625 470.175781 285.269531 470.128906 285.300781 C 470.082031 285.328125 470.042969 285.4375 470.042969 285.539062 C 470.042969 285.640625 469.976562 285.8125 469.890625 285.921875 C 469.808594 286.027344 469.675781 286.261719 469.59375 286.4375 C 469.511719 286.617188 469.335938 286.878906 469.203125 287.023438 C 469.019531 287.21875 468.949219 287.382812 468.921875 287.691406 C 468.882812 288.0625 468.839844 288.136719 468.402344 288.546875 C 468.136719 288.792969 467.921875 289.03125 467.921875 289.078125 C 467.921875 289.121094 467.816406 289.386719 467.6875 289.667969 C 467.558594 289.949219 467.410156 290.289062 467.355469 290.429688 C 467.300781 290.570312 467.152344 290.789062 467.019531 290.914062 C 466.839844 291.082031 466.78125 291.214844 466.78125 291.4375 C 466.78125 291.789062 466.347656 292.394531 465.914062 292.648438 C 465.625 292.820312 465.449219 293.136719 465.527344 293.34375 C 465.554688 293.414062 465.417969 293.695312 465.199219 294.015625 C 464.992188 294.316406 464.824219 294.609375 464.824219 294.664062 C 464.824219 294.71875 464.65625 294.933594 464.453125 295.140625 C 464.234375 295.359375 464.0625 295.621094 464.03125 295.769531 C 464.007812 295.910156 463.878906 296.167969 463.75 296.347656 C 463.625 296.523438 463.519531 296.710938 463.519531 296.761719 C 463.519531 296.816406 463.34375 297.09375 463.132812 297.378906 C 462.921875 297.660156 462.667969 298.058594 462.574219 298.257812 C 462.476562 298.460938 462.320312 298.679688 462.222656 298.746094 C 462.128906 298.808594 462.027344 298.992188 462 299.152344 C 461.972656 299.308594 461.902344 299.492188 461.847656 299.558594 C 461.792969 299.625 461.722656 299.78125 461.695312 299.902344 C 461.664062 300.023438 461.476562 300.285156 461.273438 300.480469 C 461.015625 300.734375 460.910156 300.90625 460.910156 301.066406 C 460.910156 301.199219 460.796875 301.425781 460.625 301.636719 C 460.464844 301.828125 460.335938 302.011719 460.335938 302.050781 C 460.335938 302.207031 459.851562 303.074219 459.570312 303.414062 C 459.40625 303.613281 459.226562 303.863281 459.171875 303.964844 C 458.960938 304.351562 458.78125 304.574219 458.605469 304.65625 C 458.472656 304.714844 458.378906 304.886719 458.273438 305.257812 C 458.191406 305.542969 458.089844 305.828125 458.050781 305.894531 C 458.007812 305.964844 457.925781 306.128906 457.859375 306.261719 C 457.796875 306.394531 457.523438 306.714844 457.246094 306.972656 C 456.765625 307.421875 456.75 307.449219 456.75 307.84375 C 456.75 308.070312 456.714844 308.253906 456.675781 308.253906 C 456.5625 308.253906 456.261719 308.773438 456.261719 308.960938 C 456.261719 309.050781 456.207031 309.171875 456.136719 309.226562 C 456.070312 309.28125 456.015625 309.394531 456.015625 309.476562 C 456.015625 309.554688 455.960938 309.675781 455.894531 309.742188 C 455.828125 309.808594 455.769531 309.898438 455.769531 309.941406 C 455.769531 309.984375 455.714844 310.066406 455.648438 310.121094 C 455.582031 310.175781 455.449219 310.378906 455.351562 310.574219 C 455.253906 310.765625 455.050781 311.042969 454.902344 311.1875 C 454.753906 311.332031 454.628906 311.519531 454.628906 311.601562 C 454.628906 311.679688 454.59375 311.8125 454.554688 311.890625 C 454.511719 311.964844 454.457031 312.121094 454.433594 312.234375 C 454.410156 312.34375 454.261719 312.523438 454.105469 312.628906 C 453.523438 313.015625 453.40625 313.175781 453.40625 313.554688 C 453.40625 313.839844 453.359375 313.957031 453.15625 314.164062 C 453.015625 314.304688 452.84375 314.441406 452.769531 314.464844 C 452.5625 314.53125 452.183594 315.113281 452.183594 315.359375 C 452.183594 315.636719 452.070312 315.84375 451.679688 316.285156 C 451.507812 316.480469 451.367188 316.691406 451.367188 316.753906 C 451.367188 316.8125 451.292969 317 451.203125 317.167969 C 451.113281 317.335938 451.042969 317.5625 451.042969 317.675781 C 451.042969 317.894531 450.914062 318.109375 450.574219 318.472656 C 450.152344 318.921875 449.835938 319.347656 449.777344 319.542969 C 449.742188 319.65625 449.664062 319.820312 449.601562 319.90625 C 449.542969 319.996094 449.492188 320.25 449.492188 320.476562 C 449.492188 320.699219 449.4375 320.988281 449.367188 321.117188 C 449.207031 321.425781 449.207031 321.429688 449.496094 321.851562 C 449.925781 322.488281 450.039062 322.542969 450.917969 322.515625 C 451.648438 322.496094 451.699219 322.484375 451.996094 322.230469 C 452.421875 321.867188 452.671875 321.5625 452.671875 321.398438 C 452.671875 321.320312 452.832031 321.109375 453.027344 320.925781 C 453.265625 320.707031 453.402344 320.503906 453.429688 320.324219 C 453.453125 320.175781 453.597656 319.921875 453.75 319.753906 C 453.902344 319.589844 454.070312 319.300781 454.117188 319.113281 C 454.183594 318.875 454.386719 318.578125 454.789062 318.136719 C 455.226562 317.660156 455.359375 317.464844 455.320312 317.34375 C 455.261719 317.160156 455.492188 316.746094 455.941406 316.230469 C 456.109375 316.039062 456.269531 315.785156 456.300781 315.664062 C 456.328125 315.546875 456.53125 315.289062 456.746094 315.097656 C 457.039062 314.835938 457.148438 314.671875 457.1875 314.445312 C 457.222656 314.234375 457.382812 313.972656 457.726562 313.578125 C 457.996094 313.269531 458.222656 312.929688 458.226562 312.828125 L 458.246094 312.496094 C 458.25 312.417969 458.273438 312.335938 458.300781 312.3125 C 458.324219 312.292969 458.5 312.015625 458.6875 311.703125 C 458.875 311.390625 459.175781 310.996094 459.359375 310.820312 C 459.539062 310.648438 459.6875 310.457031 459.6875 310.398438 C 459.6875 310.339844 459.777344 310.121094 459.890625 309.910156 C 460 309.699219 460.09375 309.441406 460.09375 309.335938 C 460.09375 309.214844 460.230469 309.003906 460.460938 308.777344 C 460.664062 308.574219 460.828125 308.371094 460.828125 308.324219 C 460.828125 308.183594 461.15625 307.765625 461.265625 307.765625 C 461.40625 307.765625 461.722656 307.320312 461.722656 307.125 C 461.722656 306.84375 461.882812 306.53125 462.050781 306.488281 C 462.136719 306.464844 462.230469 306.378906 462.257812 306.292969 C 462.285156 306.207031 462.335938 306.140625 462.371094 306.140625 C 462.402344 306.140625 462.480469 305.988281 462.542969 305.804688 C 462.605469 305.621094 462.804688 305.300781 462.992188 305.09375 C 463.175781 304.886719 463.371094 304.59375 463.421875 304.445312 C 463.535156 304.113281 464.164062 303.15625 464.40625 302.9375 C 464.515625 302.839844 464.578125 302.6875 464.578125 302.523438 C 464.578125 302.378906 464.632812 302.214844 464.695312 302.164062 C 464.761719 302.109375 464.890625 301.910156 464.980469 301.722656 C 465.089844 301.5 465.230469 301.351562 465.386719 301.292969 C 465.621094 301.203125 465.738281 300.96875 465.824219 300.390625 C 465.839844 300.289062 465.933594 300.148438 466.03125 300.082031 C 466.128906 300.011719 466.210938 299.902344 466.210938 299.832031 C 466.210938 299.765625 466.316406 299.621094 466.449219 299.507812 C 466.710938 299.289062 466.96875 298.851562 466.898438 298.738281 C 466.824219 298.617188 467.34375 297.941406 467.621094 297.804688 C 468.148438 297.535156 468.25 297.382812 468.25 296.835938 C 468.25 296.402344 468.277344 296.3125 468.460938 296.140625 C 468.578125 296.03125 468.757812 295.78125 468.863281 295.578125 C 468.96875 295.378906 469.144531 295.117188 469.257812 294.996094 C 469.371094 294.878906 469.515625 294.660156 469.578125 294.507812 C 469.640625 294.355469 469.824219 294.109375 469.984375 293.960938 C 470.144531 293.808594 470.292969 293.574219 470.320312 293.433594 C 470.347656 293.289062 470.476562 293.09375 470.621094 292.976562 C 470.945312 292.714844 471.101562 292.410156 471.101562 292.035156 C 471.101562 291.777344 471.171875 291.671875 471.601562 291.246094 C 472.019531 290.832031 472.488281 290.089844 472.488281 289.84375 C 472.488281 289.8125 472.582031 289.664062 472.691406 289.519531 C 472.804688 289.371094 472.898438 289.226562 472.898438 289.195312 C 472.898438 289.164062 473.042969 288.925781 473.222656 288.664062 C 473.402344 288.402344 473.550781 288.164062 473.550781 288.132812 C 473.550781 288.101562 473.597656 288.019531 473.660156 287.949219 C 473.722656 287.878906 473.832031 287.640625 473.902344 287.421875 C 474.0625 286.949219 474.628906 286.191406 474.949219 286.027344 C 475.082031 285.957031 475.199219 285.816406 475.226562 285.6875 C 475.253906 285.5625 475.292969 285.402344 475.316406 285.324219 C 475.335938 285.25 475.496094 285.070312 475.675781 284.933594 C 475.851562 284.792969 475.996094 284.628906 475.996094 284.570312 C 475.996094 284.507812 476.042969 284.410156 476.097656 284.351562 C 476.390625 284.039062 476.722656 283.46875 476.777344 283.183594 C 476.808594 283.007812 476.902344 282.777344 476.988281 282.671875 C 477.070312 282.5625 477.136719 282.359375 477.136719 282.21875 C 477.136719 282.042969 477.207031 281.894531 477.347656 281.761719 C 477.464844 281.652344 477.617188 281.457031 477.683594 281.328125 C 477.753906 281.195312 478.0625 280.769531 478.371094 280.378906 C 478.722656 279.9375 478.933594 279.597656 478.933594 279.46875 C 478.933594 279.359375 478.984375 279.226562 479.042969 279.175781 C 479.105469 279.125 479.179688 278.984375 479.207031 278.863281 C 479.234375 278.734375 479.378906 278.550781 479.542969 278.4375 C 479.699219 278.324219 479.921875 278.050781 480.039062 277.828125 C 480.398438 277.128906 480.511719 276.960938 480.867188 276.628906 C 481.125 276.390625 481.214844 276.242188 481.214844 276.066406 C 481.214844 275.933594 481.324219 275.632812 481.460938 275.390625 C 481.59375 275.148438 481.703125 274.863281 481.703125 274.757812 C 481.703125 274.636719 481.859375 274.394531 482.109375 274.125 C 482.332031 273.882812 482.515625 273.621094 482.515625 273.542969 C 482.519531 273.464844 482.667969 273.265625 482.851562 273.097656 C 483.035156 272.925781 483.285156 272.566406 483.414062 272.292969 C 483.539062 272.019531 483.683594 271.773438 483.730469 271.742188 C 483.78125 271.710938 483.878906 271.488281 483.953125 271.246094 C 484.074219 270.816406 484.183594 270.6875 484.761719 270.285156 C 485.148438 270.015625 485.398438 269.539062 485.421875 269.03125 C 485.445312 268.523438 485.554688 268.25 485.867188 267.949219 C 485.980469 267.839844 486.167969 267.605469 486.289062 267.429688 C 486.410156 267.25 486.707031 266.960938 486.945312 266.789062 C 487.476562 266.40625 487.660156 266.101562 487.714844 265.519531 C 487.753906 265.148438 487.808594 265.019531 488.0625 264.746094 C 488.4375 264.347656 488.71875 263.863281 488.71875 263.621094 C 488.71875 263.519531 488.8125 263.3125 488.925781 263.160156 C 489.042969 263.003906 489.1875 262.761719 489.25 262.617188 C 489.308594 262.476562 489.542969 262.167969 489.769531 261.9375 C 489.992188 261.710938 490.199219 261.417969 490.226562 261.292969 C 490.289062 261.011719 490.644531 260.617188 490.765625 260.691406 C 490.90625 260.777344 491.238281 260.3125 491.242188 260.023438 C 491.246094 259.835938 491.351562 259.644531 491.613281 259.335938 C 491.816406 259.097656 492.019531 258.769531 492.0625 258.605469 C 492.109375 258.441406 492.195312 258.265625 492.257812 258.214844 C 492.324219 258.160156 492.449219 257.964844 492.535156 257.777344 C 492.625 257.589844 492.859375 257.25 493.054688 257.027344 C 493.25 256.800781 493.480469 256.472656 493.570312 256.300781 C 493.660156 256.128906 493.871094 255.839844 494.039062 255.664062 C 494.207031 255.484375 494.34375 255.257812 494.34375 255.164062 C 494.34375 254.753906 494.628906 254.171875 495.050781 253.714844 C 495.316406 253.429688 495.488281 253.167969 495.488281 253.054688 C 495.488281 252.898438 495.722656 252.5 495.898438 252.359375 C 496.109375 252.191406 496.546875 251.496094 496.546875 251.328125 C 496.546875 251.214844 496.675781 250.945312 496.832031 250.734375 C 496.988281 250.519531 497.117188 250.269531 497.117188 250.179688 C 497.117188 250.085938 497.214844 249.945312 497.335938 249.863281 C 497.796875 249.550781 498.097656 249.207031 498.097656 248.988281 C 498.097656 248.691406 498.304688 248.347656 498.769531 247.867188 C 499.113281 247.511719 499.15625 247.429688 499.15625 247.101562 C 499.15625 246.730469 499.390625 246.351562 499.621094 246.347656 C 499.792969 246.34375 500.054688 246 500.054688 245.777344 C 500.054688 245.515625 500.496094 244.828125 500.703125 244.761719 C 500.789062 244.738281 500.992188 244.546875 501.164062 244.339844 C 501.417969 244.03125 501.46875 243.910156 501.453125 243.648438 C 501.4375 243.410156 501.503906 243.21875 501.722656 242.859375 C 501.882812 242.597656 502.011719 242.351562 502.011719 242.316406 C 502.011719 242.277344 502.148438 242.101562 502.3125 241.929688 C 502.800781 241.417969 502.964844 241.121094 503.007812 240.679688 C 503.039062 240.347656 503.09375 240.226562 503.277344 240.074219 C 503.878906 239.582031 504.117188 239.296875 504.21875 238.953125 C 504.273438 238.75 504.453125 238.441406 504.617188 238.261719 C 505.085938 237.742188 505.265625 237.445312 505.324219 237.085938 C 505.355469 236.886719 505.441406 236.707031 505.53125 236.652344 C 505.613281 236.601562 505.679688 236.523438 505.679688 236.484375 C 505.679688 236.445312 505.773438 236.289062 505.886719 236.144531 C 505.996094 235.996094 506.089844 235.839844 506.089844 235.792969 C 506.089844 235.75 506.171875 235.621094 506.273438 235.511719 C 506.847656 234.890625 506.933594 234.757812 507.53125 233.589844 C 507.898438 232.871094 508.421875 232.160156 508.695312 231.996094 C 508.953125 231.84375 509.1875 231.492188 509.1875 231.253906 C 509.1875 231.167969 509.261719 231.003906 509.351562 230.886719 C 509.441406 230.773438 509.515625 230.621094 509.515625 230.546875 C 509.515625 230.46875 509.582031 230.3125 509.667969 230.191406 C 509.75 230.074219 509.9375 229.722656 510.085938 229.410156 C 510.230469 229.101562 510.492188 228.675781 510.664062 228.472656 C 510.996094 228.082031 511.035156 227.914062 510.902344 227.425781 C 510.859375 227.265625 510.808594 227.039062 510.785156 226.925781 C 510.761719 226.8125 510.554688 226.519531 510.328125 226.277344 C 510.101562 226.03125 509.863281 225.714844 509.800781 225.566406 C 509.714844 225.378906 509.578125 225.257812 509.3125 225.144531 C 509.058594 225.035156 508.941406 224.9375 508.941406 224.832031 C 508.941406 224.746094 508.867188 224.582031 508.773438 224.464844 C 508.644531 224.296875 508.535156 224.25 508.285156 224.25 C 508.109375 224.25 507.964844 224.21875 507.964844 224.179688 C 507.964844 224.144531 507.863281 224.0625 507.738281 224 C 507.648438 223.957031 507.558594 223.910156 507.46875 223.863281 C 507.441406 223.851562 507.3125 223.921875 507.183594 224.019531 " fill-opacity="1" fill-rule="evenodd"/><g clip-path="url(#8c201e3315)"><path fill="#000000" d="M 512.128906 478.535156 C 407.167969 478.535156 321.71875 393.085938 321.71875 288.128906 C 321.71875 183.167969 407.167969 97.71875 512.128906 97.71875 C 617.085938 97.71875 702.535156 183.167969 702.535156 288.128906 C 702.535156 393.085938 617.085938 478.535156 512.128906 478.535156 Z M 512.128906 100.535156 C 408.667969 100.535156 324.535156 184.667969 324.535156 288.128906 C 324.535156 391.585938 408.667969 475.71875 512.128906 475.71875 C 615.585938 475.71875 699.71875 391.585938 699.71875 288.128906 C 699.71875 184.667969 615.585938 100.535156 512.128906 100.535156 Z M 512.128906 100.535156 " fill-opacity="1" fill-rule="nonzero"/></g><g fill="#000000" fill-opacity="1"><g transform="translate(390.185143, 391.410647)"><g><path d="M 23.578125 -18.484375 L 23.578125 -12.703125 C 23.578125 -8.472656 23.707031 -5.695312 23.96875 -4.375 C 24.238281 -3.0625 24.890625 -2.40625 25.921875 -2.40625 C 26.578125 -2.40625 27.4375 -2.671875 28.5 -3.203125 L 28.78125 -2.625 C 28.476562 -2.40625 28.078125 -2.128906 27.578125 -1.796875 C 27.085938 -1.472656 26.078125 -1.046875 24.546875 -0.515625 C 23.023438 0.015625 21.554688 0.28125 20.140625 0.28125 C 19.765625 -1.320312 19.578125 -3.878906 19.578125 -7.390625 C 18.734375 -5.015625 17.632812 -3.09375 16.28125 -1.625 C 14.925781 -0.15625 13.046875 0.578125 10.640625 0.578125 C 8.242188 0.578125 6.347656 -0.0625 4.953125 -1.34375 C 3.554688 -2.625 2.859375 -4.367188 2.859375 -6.578125 C 2.859375 -12.722656 8.429688 -15.816406 19.578125 -15.859375 L 19.578125 -17.921875 C 19.578125 -20.660156 19.175781 -22.753906 18.375 -24.203125 C 17.570312 -25.660156 16.082031 -26.390625 13.90625 -26.390625 C 12.6875 -26.390625 11.691406 -26.082031 10.921875 -25.46875 C 10.160156 -24.851562 9.648438 -24.1875 9.390625 -23.46875 C 8.734375 -21.476562 7.765625 -20.484375 6.484375 -20.484375 C 5.210938 -20.484375 4.578125 -21.195312 4.578125 -22.625 C 4.578125 -24.0625 5.53125 -25.253906 7.4375 -26.203125 C 9.34375 -27.160156 11.648438 -27.640625 14.359375 -27.640625 C 17.066406 -27.640625 19.28125 -26.867188 21 -25.328125 C 22.71875 -23.785156 23.578125 -21.503906 23.578125 -18.484375 Z M 7.21875 -6.359375 C 7.21875 -4.867188 7.578125 -3.632812 8.296875 -2.65625 C 9.023438 -1.6875 10.179688 -1.203125 11.765625 -1.203125 C 13.347656 -1.203125 14.785156 -1.972656 16.078125 -3.515625 C 17.378906 -5.066406 18.265625 -6.785156 18.734375 -8.671875 C 19.210938 -10.554688 19.492188 -12.507812 19.578125 -14.53125 C 15.335938 -14.5 12.21875 -13.71875 10.21875 -12.1875 C 8.21875 -10.664062 7.21875 -8.722656 7.21875 -6.359375 Z M 7.21875 -6.359375 "/></g></g></g><g fill="#000000" fill-opacity="1"><g transform="translate(428.019796, 391.410647)"><g><path d="M 10.078125 -27.078125 L 17.109375 -27.078125 L 17.109375 -25.8125 L 10.078125 -25.8125 L 10.078125 -4 C 10.078125 -3.195312 10.265625 -2.554688 10.640625 -2.078125 C 11.023438 -1.609375 11.523438 -1.375 12.140625 -1.375 C 13.503906 -1.375 15.125 -1.773438 17 -2.578125 L 17.109375 -1.953125 C 14.441406 -0.265625 12.078125 0.578125 10.015625 0.578125 C 8.679688 0.578125 7.6875 0.253906 7.03125 -0.390625 C 6.382812 -1.046875 6.0625 -2.175781 6.0625 -3.78125 L 6.0625 -25.8125 L 2.625 -25.8125 L 2.625 -27.078125 C 4.6875 -27.078125 6.128906 -27.65625 6.953125 -28.8125 C 7.773438 -29.976562 8.394531 -31.707031 8.8125 -34 L 10.078125 -34.109375 Z M 10.078125 -27.078125 "/></g></g></g><g fill="#000000" fill-opacity="1"><g transform="translate(453.892027, 391.410647)"><g><path d="M 11.21875 -42.125 L 11.21875 -17.40625 C 11.5625 -20.144531 12.515625 -22.535156 14.078125 -24.578125 C 15.640625 -26.617188 17.71875 -27.640625 20.3125 -27.640625 C 26.15625 -27.640625 29.078125 -24.585938 29.078125 -18.484375 L 29.078125 -9.4375 C 29.078125 -5.46875 29.332031 -3.015625 29.84375 -2.078125 C 30.363281 -1.148438 31.726562 -0.6875 33.9375 -0.6875 L 34.046875 0 L 20.140625 0 L 20.265625 -0.6875 C 22.546875 -0.6875 23.914062 -1.160156 24.375 -2.109375 C 24.832031 -3.066406 25.0625 -5.679688 25.0625 -9.953125 L 25.0625 -17.921875 C 25.0625 -20.546875 24.648438 -22.523438 23.828125 -23.859375 C 23.015625 -25.203125 21.71875 -25.875 19.9375 -25.875 C 18.164062 -25.875 16.6875 -25.269531 15.5 -24.0625 C 14.320312 -22.863281 13.445312 -21.347656 12.875 -19.515625 C 11.769531 -15.960938 11.21875 -12.394531 11.21875 -8.8125 C 11.21875 -5.226562 11.457031 -2.976562 11.9375 -2.0625 C 12.414062 -1.144531 13.78125 -0.6875 16.03125 -0.6875 L 16.140625 0 L 2.171875 0 L 2.296875 -0.6875 C 4.578125 -0.6875 5.96875 -1.148438 6.46875 -2.078125 C 6.96875 -3.015625 7.21875 -5.507812 7.21875 -9.5625 L 7.21875 -28.609375 C 7.21875 -34.335938 6.945312 -37.773438 6.40625 -38.921875 C 6.175781 -39.378906 5.820312 -39.78125 5.34375 -40.125 C 4.875 -40.46875 4.359375 -40.675781 3.796875 -40.75 C 3.242188 -40.820312 2.492188 -40.859375 1.546875 -40.859375 L 1.4375 -41.5 C 4.75 -41.914062 8.007812 -42.125 11.21875 -42.125 Z M 11.21875 -42.125 "/></g></g></g><g fill="#000000" fill-opacity="1"><g transform="translate(497.278608, 391.410647)"><g><path d="M 10.46875 -42.125 L 10.46875 -9.953125 C 10.46875 -5.722656 10.71875 -3.117188 11.21875 -2.140625 C 11.71875 -1.171875 13.09375 -0.6875 15.34375 -0.6875 L 15.453125 0 L 1.4375 0 L 1.546875 -0.6875 C 3.835938 -0.6875 5.226562 -1.160156 5.71875 -2.109375 C 6.21875 -3.066406 6.46875 -5.679688 6.46875 -9.953125 L 6.46875 -31.828125 C 6.46875 -36.054688 6.238281 -38.609375 5.78125 -39.484375 C 5.625 -39.753906 5.335938 -40.019531 4.921875 -40.28125 C 4.503906 -40.550781 4.054688 -40.707031 3.578125 -40.75 C 3.097656 -40.789062 2.421875 -40.8125 1.546875 -40.8125 L 1.4375 -41.4375 C 4.289062 -41.894531 7.300781 -42.125 10.46875 -42.125 Z M 10.46875 -42.125 "/></g></g></g><g fill="#000000" fill-opacity="1"><g transform="translate(522.063347, 391.410647)"><g><path d="M 25.40625 -14.484375 L 6.640625 -14.484375 L 6.640625 -13.5 C 6.640625 -9.457031 7.5 -6.378906 9.21875 -4.265625 C 10.9375 -2.148438 13.070312 -1.09375 15.625 -1.09375 C 19.4375 -1.09375 22.179688 -2.617188 23.859375 -5.671875 L 24.71875 -5.203125 C 22.738281 -1.347656 19.421875 0.578125 14.765625 0.578125 C 11.328125 0.578125 8.390625 -0.660156 5.953125 -3.140625 C 3.515625 -5.628906 2.296875 -8.976562 2.296875 -13.1875 C 2.296875 -17.40625 3.367188 -20.867188 5.515625 -23.578125 C 7.671875 -26.285156 10.550781 -27.640625 14.15625 -27.640625 C 17.769531 -27.640625 20.546875 -26.410156 22.484375 -23.953125 C 24.429688 -21.492188 25.40625 -18.335938 25.40625 -14.484375 Z M 14.3125 -26.5 C 12.09375 -26.5 10.34375 -25.550781 9.0625 -23.65625 C 7.789062 -21.769531 7.019531 -19.265625 6.75 -16.140625 L 21 -16.140625 C 20.738281 -23.046875 18.507812 -26.5 14.3125 -26.5 Z M 14.3125 -26.5 "/></g></g></g><g fill="#000000" fill-opacity="1"><g transform="translate(557.951952, 391.410647)"><g><path d="M 11.5 -27.640625 L 11.5 -17.40625 C 11.84375 -20.144531 12.796875 -22.535156 14.359375 -24.578125 C 15.929688 -26.617188 18.015625 -27.640625 20.609375 -27.640625 C 26.441406 -27.640625 29.359375 -24.585938 29.359375 -18.484375 L 29.359375 -9.4375 C 29.359375 -5.46875 29.613281 -3.015625 30.125 -2.078125 C 30.644531 -1.148438 32.007812 -0.6875 34.21875 -0.6875 L 34.34375 0 L 20.4375 0 L 20.546875 -0.6875 C 22.835938 -0.6875 24.210938 -1.160156 24.671875 -2.109375 C 25.128906 -3.066406 25.359375 -5.679688 25.359375 -9.953125 L 25.359375 -17.921875 C 25.359375 -20.546875 24.945312 -22.523438 24.125 -23.859375 C 23.300781 -25.203125 22.003906 -25.875 20.234375 -25.875 C 18.460938 -25.875 16.984375 -25.269531 15.796875 -24.0625 C 14.609375 -22.863281 13.726562 -21.347656 13.15625 -19.515625 C 12.050781 -15.960938 11.5 -12.394531 11.5 -8.8125 C 11.5 -5.226562 11.738281 -2.976562 12.21875 -2.0625 C 12.695312 -1.144531 14.0625 -0.6875 16.3125 -0.6875 L 16.421875 0 L 2.46875 0 L 2.578125 -0.6875 C 4.867188 -0.6875 6.257812 -1.148438 6.75 -2.078125 C 7.25 -3.015625 7.5 -5.507812 7.5 -9.5625 L 7.5 -14.140625 C 7.5 -19.859375 7.210938 -23.3125 6.640625 -24.5 C 6.453125 -24.914062 6.117188 -25.296875 5.640625 -25.640625 C 5.160156 -25.984375 4.644531 -26.191406 4.09375 -26.265625 C 3.539062 -26.347656 2.785156 -26.390625 1.828125 -26.390625 L 1.71875 -27.015625 C 5.039062 -27.429688 8.300781 -27.640625 11.5 -27.640625 Z M 11.5 -27.640625 "/></g></g></g><g fill="#000000" fill-opacity="1"><g transform="translate(601.624716, 391.410647)"><g><path d="M 21.640625 -6.359375 C 21.023438 -4.367188 19.984375 -2.710938 18.515625 -1.390625 C 17.046875 -0.078125 15.25 0.578125 13.125 0.578125 C 11.007812 0.578125 9.242188 0.15625 7.828125 -0.6875 C 6.421875 -1.53125 5.335938 -2.632812 4.578125 -4 C 3.054688 -6.632812 2.296875 -9.835938 2.296875 -13.609375 C 2.296875 -17.390625 3.59375 -20.671875 6.1875 -23.453125 C 8.78125 -26.242188 12.25 -27.640625 16.59375 -27.640625 C 18.5 -27.640625 20.238281 -27.410156 21.8125 -26.953125 L 21.8125 -32.390625 C 21.8125 -35.253906 21.710938 -37.191406 21.515625 -38.203125 C 21.328125 -39.210938 21.023438 -39.832031 20.609375 -40.0625 C 19.835938 -40.519531 18.632812 -40.75 17 -40.75 L 16.890625 -41.375 C 19.628906 -41.832031 22.601562 -42.0625 25.8125 -42.0625 L 25.8125 -12.703125 C 25.8125 -8.472656 25.941406 -5.695312 26.203125 -4.375 C 26.472656 -3.0625 27.125 -2.40625 28.15625 -2.40625 C 28.800781 -2.40625 29.660156 -2.671875 30.734375 -3.203125 L 31.015625 -2.625 C 30.710938 -2.40625 30.3125 -2.128906 29.8125 -1.796875 C 29.320312 -1.472656 28.3125 -1.046875 26.78125 -0.515625 C 25.257812 0.015625 23.789062 0.28125 22.375 0.28125 C 21.882812 -1.769531 21.640625 -3.984375 21.640625 -6.359375 Z M 8.015625 -5.375 C 8.472656 -4.113281 9.1875 -3.101562 10.15625 -2.34375 C 11.132812 -1.582031 12.316406 -1.203125 13.703125 -1.203125 C 15.097656 -1.203125 16.359375 -1.675781 17.484375 -2.625 C 18.609375 -3.582031 19.457031 -4.804688 20.03125 -6.296875 C 21.21875 -9.160156 21.8125 -12.117188 21.8125 -15.171875 L 21.8125 -23.921875 C 20.164062 -25.222656 18.367188 -25.875 16.421875 -25.875 C 14.472656 -25.875 12.847656 -25.453125 11.546875 -24.609375 C 10.253906 -23.773438 9.265625 -22.671875 8.578125 -21.296875 C 7.285156 -18.734375 6.640625 -16.003906 6.640625 -13.109375 C 6.640625 -10.316406 7.097656 -7.738281 8.015625 -5.375 Z M 8.015625 -5.375 "/></g></g></g></svg>